<?xml version="1.0" encoding="utf-8"?>
<!-- Generator: Adobe Illustrator 16.0.0, SVG Export Plug-In . SVG Version: 6.00 Build 0)  -->
<!DOCTYPE svg PUBLIC "-//W3C//DTD SVG 1.1//EN" "http://www.w3.org/Graphics/SVG/1.1/DTD/svg11.dtd">
<svg version="1.1" xmlns="http://www.w3.org/2000/svg" xmlns:xlink="http://www.w3.org/1999/xlink" x="0px" y="0px" width="24px"
	 height="24px" viewBox="0 0 24 24" enable-background="new 0 0 24 24" xml:space="preserve">
<g id="Capa_1">
	<g>
		<path fill="#0956A6" d="M13.69,7.196h-3.585V4.001c0-0.324-0.382-0.582-0.706-0.582c-0.565,0-0.865,0.262-0.865,0.582v3.195H5.113
			c-0.435,0.049-0.569,0.5-0.569,0.819c0,0.323,0.134,0.854,0.569,0.854h3.421v3.708c0,0.32,0.101,0.667,0.776,0.667
			c0.647,0,0.795-0.347,0.795-0.667V8.87h3.585c0.324,0,0.583-0.301,0.583-0.923C14.272,7.513,14.014,7.196,13.69,7.196L13.69,7.196
			z"/>
		<path fill-rule="evenodd" clip-rule="evenodd" fill="#0956A6" d="M23.745,22.506L15.42,13.36c0,0,4.962-5.823-0.861-11.523
			c0,0-5.414-4.449-10.868,0.502c0,0-5.25,4.747-0.287,11.062c0,0,4.101,4.908,10.54,1.244l8.612,9.256c0,0,0.532,0.327,1.189-0.207
			C23.745,23.694,24.318,23.08,23.745,22.506z M9.31,14.837c-3.806,0-6.89-3.084-6.89-6.89c0-3.805,3.084-6.889,6.89-6.889
			c3.805,0,6.89,3.084,6.89,6.889C16.199,11.753,13.114,14.837,9.31,14.837z"/>
	</g>
</g>
<g id="Layer_1">
</g>
</svg>
