<?xml version="1.0" encoding="utf-8"?>
<!-- Generator: Adobe Illustrator 16.0.0, SVG Export Plug-In . SVG Version: 6.00 Build 0)  -->
<!DOCTYPE svg PUBLIC "-//W3C//DTD SVG 1.1//EN" "http://www.w3.org/Graphics/SVG/1.1/DTD/svg11.dtd">
<svg version="1.1" id="Layer_1" xmlns="http://www.w3.org/2000/svg" xmlns:xlink="http://www.w3.org/1999/xlink" x="0px" y="0px"
	 width="200px" height="42.167px" viewBox="0 0 200 42.167" enable-background="new 0 0 200 42.167" xml:space="preserve">
<g>
	<g>
		<g>
			<polygon fill="#0956A6" points="12.599,32.612 9.673,32.612 9.673,3.974 1.6,3.974 1.6,1.206 20.593,1.206 20.593,4.053 
				12.599,4.053 			"/>
		</g>
		<g>
			<path fill="#0956A6" d="M25.171,32.612h-2.844V9.602h2.844V32.612z M25.171,6.544h-2.844V1.167h2.844V6.544z"/>
		</g>
		<g>
			<path fill="#0956A6" d="M32.562,41.167h-2.846V9.602h2.846v3.457c0.775-0.907,1.68-1.678,2.708-2.304
				c1.817-1.111,3.968-1.675,6.393-1.675c1.853,0,3.555,0.343,5.054,1.02c1.491,0.676,2.771,1.579,3.81,2.688
				c1.037,1.109,1.838,2.4,2.386,3.838c0.544,1.431,0.819,2.94,0.819,4.481c0,1.577-0.283,3.099-0.843,4.531
				c-0.559,1.436-1.375,2.728-2.427,3.834c-1.049,1.106-2.332,2.004-3.808,2.664c-1.486,0.662-3.165,0.999-4.99,0.999
				c-1.369,0-2.662-0.197-3.844-0.586c-1.167-0.384-2.216-0.884-3.119-1.486c-0.826-0.549-1.543-1.178-2.137-1.864V41.167z
				 M41.542,11.848c-1.346,0-2.588,0.245-3.689,0.729c-1.11,0.487-2.078,1.158-2.879,1.996c-0.8,0.836-1.428,1.83-1.867,2.952
				c-0.44,1.125-0.665,2.331-0.665,3.582c0,1.327,0.235,2.578,0.699,3.711c0.463,1.133,1.113,2.114,1.937,2.926
				c0.827,0.816,1.814,1.467,2.937,1.928c2.219,0.914,5.002,0.929,7.242,0.019c1.108-0.453,2.091-1.087,2.919-1.889
				c0.823-0.802,1.487-1.783,1.977-2.919c0.487-1.13,0.733-2.4,0.733-3.775c0-1.1-0.201-2.219-0.593-3.327
				c-0.389-1.094-0.977-2.098-1.745-2.974c-0.76-0.872-1.734-1.59-2.895-2.14C44.503,12.123,43.119,11.848,41.542,11.848z"/>
		</g>
		<g>
			<path fill="#0956A6" d="M63.111,33.135c-0.983,0-1.943-0.176-2.855-0.519c-0.915-0.346-1.731-0.843-2.426-1.475
				c-0.705-0.646-1.254-1.426-1.636-2.328c-0.388-0.907-0.551-1.922-0.49-3.015l0.044-0.813h2.8v0.861
				c0,1.472,0.414,2.566,1.265,3.339c0.874,0.797,1.952,1.182,3.297,1.182c0.677,0,1.282-0.115,1.798-0.346
				c0.522-0.233,0.971-0.545,1.331-0.93c0.364-0.384,0.649-0.842,0.847-1.363c0.202-0.523,0.287-1.063,0.265-1.648
				c-0.045-1.253-0.385-2.16-1.039-2.782c-0.695-0.662-1.847-1.169-3.425-1.51c-0.876-0.262-1.644-0.516-2.346-0.78
				c-0.768-0.283-1.446-0.66-2.02-1.114c-0.605-0.476-1.096-1.078-1.458-1.789c-0.365-0.715-0.566-1.603-0.595-2.638
				c-0.001-1.026,0.179-1.936,0.538-2.728c0.353-0.787,0.844-1.464,1.453-2.014c0.608-0.544,1.321-0.96,2.121-1.236
				c1.548-0.535,3.436-0.552,5.007,0.001c0.789,0.277,1.489,0.696,2.083,1.242c0.596,0.549,1.069,1.23,1.413,2.02
				c0.341,0.79,0.512,1.709,0.512,2.731v0.861H66.75v-0.861c0-0.678-0.104-1.259-0.309-1.721c-0.203-0.456-0.466-0.83-0.783-1.104
				c-0.324-0.282-0.69-0.48-1.122-0.607c-0.467-0.137-0.948-0.204-1.426-0.204c-1.223,0-2.154,0.333-2.852,1.017
				c-0.681,0.669-0.991,1.502-0.947,2.543c0.042,1.029,0.341,1.744,0.913,2.189c0.688,0.534,1.738,1.002,3.122,1.398
				c0.696,0.186,1.417,0.397,2.151,0.629c0.813,0.255,1.553,0.631,2.205,1.114c0.67,0.5,1.242,1.164,1.701,1.975
				c0.466,0.823,0.733,1.877,0.793,3.135c0.061,0.994-0.088,1.952-0.443,2.833c-0.348,0.859-0.846,1.634-1.481,2.302
				c-0.639,0.667-1.409,1.2-2.289,1.582C65.1,32.943,64.133,33.135,63.111,33.135z"/>
		</g>
	</g>
	<g>
		<g>
			<path fill="#0956A6" d="M90.86,31.529c-0.819,0.298-1.934,0.446-3.496,0.446c-6.843,0-7.625-6.099-7.625-8.479
				c0-6.584,2.083-11.084,4.797-13.834c2.196-2.232,5.022-3.199,7.776-3.199c1.3,0,2.713,0.334,3.01,0.558l-1.524,4.797
				c-0.482-0.225-1.115-0.372-2.231-0.372c-1.079,0-2.454,0.78-3.385,2.008c-1.449,1.935-2.565,4.947-2.565,8.89
				c0,2.825,0.817,4.686,3.012,4.686c0.854,0,1.896-0.149,2.529-0.372L90.86,31.529z"/>
			<path fill="#0956A6" d="M106.404,21.042h-5.244l-1.191,5.837h6.025l-0.967,4.873H93.573L98.37,6.684h11.044l-0.967,4.837h-5.428
				l-1.043,4.909h5.318L106.404,21.042z"/>
			<path fill="#0956A6" d="M115.881,32.05c-5.725,0-6.578-5.543-6.578-8.296c0-5.242,1.709-11.565,5.207-14.949
				c1.52-1.487,3.422-2.418,5.838-2.418c5.725,0,6.508,5.021,6.508,7.924c0,5.577-1.709,11.899-5.061,15.248
				c-1.631,1.635-3.533,2.492-5.873,2.492H115.881z M116.701,27.254c0.408,0,0.855-0.226,1.23-0.598
				c2.268-2.269,3.271-10.265,3.271-12.943c0-0.967-0.227-2.529-1.562-2.529c-0.486,0-0.932,0.223-1.379,0.67
				c-2.119,2.119-3.307,8.89-3.307,12.607c0,1.078,0.184,2.792,1.711,2.792H116.701z"/>
		</g>
	</g>
	<g>
		<g>
			<path fill="#17ABE3" d="M174.105,28.601c2.439,3.224,6.309,5.302,10.662,5.302c7.379,0,13.359-5.977,13.359-13.356
				c0-7.391-5.98-13.364-13.359-13.364c-4.363,0-8.24,2.088-10.676,5.324l1.352,1.504c2.051-2.923,5.443-4.834,9.289-4.834
				c6.248,0,11.316,5.066,11.316,11.326c0,6.26-5.068,11.323-11.316,11.323c-3.846,0-7.238-1.909-9.289-4.832L174.105,28.601z"/>
		</g>
	</g>
	<g>
		<g>
			<path fill="#7BC143" d="M154.242,28.524c2.438,3.267,6.336,5.379,10.719,5.379c7.383,0,13.363-5.977,13.363-13.356
				c0-7.391-5.98-13.364-13.363-13.364c-4.283,0-8.102,2.016-10.545,5.155l1.115,1.833c2.039-3.012,5.484-4.994,9.398-4.994
				c6.248,0,11.316,5.066,11.316,11.326c0,6.26-5.068,11.323-11.316,11.323c-3.908,0-7.348-1.974-9.387-4.977L154.242,28.524z"/>
		</g>
	</g>
	<g>
		<g>
			<path fill="#F9A61A" d="M145.127,31.825c-6.258,0-11.332-5.062-11.332-11.323c0-6.26,5.074-11.326,11.332-11.326
				c6.252,0,11.316,5.066,11.316,11.326C156.443,26.762,151.379,31.825,145.127,31.825z M145.162,7.183
				c-7.379,0-13.365,5.973-13.365,13.364c0,7.38,5.986,13.356,13.365,13.356s13.361-5.977,13.361-13.356
				C158.523,13.156,152.541,7.183,145.162,7.183z"/>
		</g>
	</g>
</g>
</svg>
