<svg id="Logo" xmlns="http://www.w3.org/2000/svg" viewBox="0 0 144.088 19.913">
  <defs>
    <style>
      .cls-1 {
        fill: #0f265c;
      }
    </style>
  </defs>
  <path id="Lettering" class="cls-1" d="M38.307,18.519A4.567,4.567,0,0,1,33.682,13.7a4.628,4.628,0,1,1,9.248,0A4.567,4.567,0,0,1,38.307,18.519Zm0-8.426c-1.947,0-3.255,1.451-3.255,3.611a3.273,3.273,0,1,0,6.511,0A3.3,3.3,0,0,0,38.307,10.094Zm-22.19,8.426A4.566,4.566,0,0,1,11.495,13.7a4.626,4.626,0,1,1,9.245,0A4.567,4.567,0,0,1,16.116,18.519Zm0-8.426c-1.948,0-3.256,1.451-3.256,3.611a3.273,3.273,0,1,0,6.511,0A3.3,3.3,0,0,0,16.116,10.094Zm85.4,8.262h-1.327V9.04H101.5l.03.04,5.08,6.893V9.04h1.327v9.314h-1.238l-.028-.039-5.148-7.041v7.079Zm-23.776,0H76.414V9.04H78.2l.024.059,2.741,6.655L83.752,9.04H85.54v9.314H84.214l0-7.123-2.947,7.123h-.592L80.65,18.3l-2.908-7.062v7.122Zm-76.152,0H.263V9.04H1.57l.028.04,5.08,6.893V9.04H8v9.314H6.766l-.03-.039L1.59,11.275v7.079Zm114.056,0H114.32V10.244h-2.884V9.04h7.112v1.2h-2.9v8.11Zm-45.456,0H68.863V14.432L65.182,9.04h1.561L69.519,13.2,72.3,9.04h1.558L70.19,14.432v3.921Zm25.924,0h-6.17V9.04h6.17v1.2H91.27v2.75h4.747v1.2H91.27v2.955h4.844v1.2Zm-39.44,0H55.167L58.909,9.04h1.538L64.2,18.352l-1.5,0-.809-2.022H57.48l-.806,2.022Zm3.011-7.782-1.8,4.555h3.589Zm-31.7,7.782H26.448l-.023-.059L22.706,9.04h1.506l.024.061,2.987,7.652L30.236,9.04h1.507l-3.757,9.314Zm20.058,0H46.718l0-9.314h3.763a2.776,2.776,0,0,1,2.954,2.846,2.775,2.775,0,0,1-2.954,2.845H48.046v3.623Zm0-8.111h0v3.284h2.3a1.644,1.644,0,1,0,0-3.284Zm-12.3-3.866h0a1.386,1.386,0,0,1-.226-.014,1.618,1.618,0,0,1-.211-.037l.119-.695a.638.638,0,0,0,.3.059.626.626,0,0,0,.314-.07.5.5,0,0,0,.2-.24l.177-.407L34.945,1.36h.828l1.041,2.675L37.857,1.36h.835L36.97,5.571a1.227,1.227,0,0,1-.481.617A1.458,1.458,0,0,1,35.743,6.377ZM33.09,5.017a1.4,1.4,0,0,1-.64-.152,1.442,1.442,0,0,1-.506-.425v.488h-.776V0h.776V1.855a1.4,1.4,0,0,1,1.146-.584,1.492,1.492,0,0,1,.816.23,1.556,1.556,0,0,1,.562.653,2.3,2.3,0,0,1,.2.995,2.29,2.29,0,0,1-.2,1,1.529,1.529,0,0,1-.562.646A1.458,1.458,0,0,1,33.09,5.017Zm-.229-3.059a1.031,1.031,0,0,0-.525.14,1.04,1.04,0,0,0-.392.347V3.857a.909.909,0,0,0,.388.336,1.129,1.129,0,0,0,.528.137A.917.917,0,0,0,33.6,4a1.288,1.288,0,0,0,.277-.853,1.3,1.3,0,0,0-.277-.858A.913.913,0,0,0,32.861,1.958ZM26.344,5.017a1.488,1.488,0,0,1-.821-.226,1.514,1.514,0,0,1-.565-.646,2.29,2.29,0,0,1-.2-1,2.3,2.3,0,0,1,.2-.995,1.551,1.551,0,0,1,.565-.653,1.513,1.513,0,0,1,.821-.23,1.448,1.448,0,0,1,.632.151,1.51,1.51,0,0,1,.513.433V0h.776V4.928h-.776V4.441a1.479,1.479,0,0,1-.506.425A1.4,1.4,0,0,1,26.344,5.017Zm.221-3.059a.9.9,0,0,0-.732.332,1.313,1.313,0,0,0-.274.858A1.3,1.3,0,0,0,25.834,4a.909.909,0,0,0,.732.329A1.147,1.147,0,0,0,27.1,4.2a.979.979,0,0,0,.392-.339V2.438A1.023,1.023,0,0,0,27.1,2.1,1.119,1.119,0,0,0,26.565,1.958ZM22.508,5.017a1.957,1.957,0,0,1-.957-.233,1.694,1.694,0,0,1-.669-.661,1.955,1.955,0,0,1-.244-.983,1.94,1.94,0,0,1,.232-.941,1.767,1.767,0,0,1,1.578-.928,1.657,1.657,0,0,1,1.541.942,2.214,2.214,0,0,1,.218,1V3.4H21.451a1.076,1.076,0,0,0,.347.7,1.12,1.12,0,0,0,.79.281,1.611,1.611,0,0,0,.551-.1A1.288,1.288,0,0,0,23.6,3.99l.355.51a1.8,1.8,0,0,1-.643.384A2.463,2.463,0,0,1,22.508,5.017Zm-.059-3.111a.923.923,0,0,0-.716.284,1.091,1.091,0,0,0-.289.662h2.01a1.1,1.1,0,0,0-.118-.447A.911.911,0,0,0,23,2.047,1,1,0,0,0,22.449,1.906ZM15.826,5.017a1.962,1.962,0,0,1-.957-.233,1.694,1.694,0,0,1-.669-.661,1.955,1.955,0,0,1-.244-.983A1.926,1.926,0,0,1,14.19,2.2a1.788,1.788,0,0,1,.646-.677,1.767,1.767,0,0,1,.931-.251,1.711,1.711,0,0,1,.924.251,1.683,1.683,0,0,1,.617.691,2.187,2.187,0,0,1,.218,1V3.4H14.77a1.075,1.075,0,0,0,.347.7,1.12,1.12,0,0,0,.79.281,1.647,1.647,0,0,0,.551-.1,1.283,1.283,0,0,0,.462-.289l.355.51a1.8,1.8,0,0,1-.643.384A2.487,2.487,0,0,1,15.826,5.017Zm-.059-3.111a.926.926,0,0,0-.716.284,1.091,1.091,0,0,0-.288.662h2.009a.994.994,0,0,0-.117-.447.9.9,0,0,0-.333-.358A.984.984,0,0,0,15.767,1.906ZM5.983,5.017a1.845,1.845,0,0,1-.965-.251,1.722,1.722,0,0,1-.643-.68A2,2,0,0,1,4.15,3.14,1.98,1.98,0,0,1,4.376,2.2a1.719,1.719,0,0,1,.643-.68,1.845,1.845,0,0,1,.965-.251,1.858,1.858,0,0,1,.971.251A1.726,1.726,0,0,1,7.6,2.2a1.972,1.972,0,0,1,.226.941,2,2,0,0,1-.226.946,1.722,1.722,0,0,1-.643.68A1.858,1.858,0,0,1,5.983,5.017Zm0-3.059a.917.917,0,0,0-.751.343,1.3,1.3,0,0,0-.277.839,1.31,1.31,0,0,0,.277.846.917.917,0,0,0,.751.344.924.924,0,0,0,.757-.344,1.31,1.31,0,0,0,.277-.846A1.3,1.3,0,0,0,6.74,2.3.924.924,0,0,0,5.983,1.958Zm4.079,2.971H9.249L8.141,1.36h.806L9.7,3.953l.85-2.593h.68l.85,2.593.753-2.593h.806L12.531,4.928h-.814L10.89,2.313l-.828,2.615Zm9.009,0H18.3V1.36h.776v.525a1.659,1.659,0,0,1,.518-.437,1.363,1.363,0,0,1,.643-.17v.769a1.046,1.046,0,0,0-.244-.022,1.141,1.141,0,0,0-.521.144,1,1,0,0,0-.4.328v2.43Zm-18.206,0H0V0H2.165a1.722,1.722,0,0,1,.864.207,1.415,1.415,0,0,1,.554.562,1.614,1.614,0,0,1,.192.776,1.614,1.614,0,0,1-.192.776,1.407,1.407,0,0,1-.558.562,1.729,1.729,0,0,1-.86.207H.865V4.927Zm0-4.167V2.327H2.047a.87.87,0,0,0,.606-.214.732.732,0,0,0,.237-.569A.73.73,0,0,0,2.652.976.87.87,0,0,0,2.047.761Z" transform="translate(25.54 1.389)"/>
  <path id="Emblem" class="cls-1" d="M19.643,19.913H.372a.387.387,0,0,1-.372-.4V14.7H20.015v4.812A.387.387,0,0,1,19.643,19.913Zm.37-6.419H0V9.078H20.013v4.415Zm0-5.62H0V4.225H20.013V7.874Zm0-4.856H0V.4A.388.388,0,0,1,.372,0H19.643a.388.388,0,0,1,.372.4V3.019Z" transform="translate(0 0)"/>
</svg>
