<svg id="icon-settings" xmlns="http://www.w3.org/2000/svg" width="179.4" height="179.4" viewBox="0 0 179.4 179.4">
  <path id="Trazado_5" data-name="Trazado 5" d="M244.187,123.449a39.021,39.021,0,0,0-55.126,0,3,3,0,0,0,4.24,4.24,32.985,32.985,0,0,1,46.959,46.334q-.155.157-.313.313a3,3,0,1,0,4.167,4.313l.073-.073A39.021,39.021,0,0,0,244.187,123.449Z" transform="translate(-117.993 -70.243)"/>
  <path id="Trazado_4" data-name="Trazado 4" d="M225.474,62.971h-9.431A2.927,2.927,0,0,1,213.249,61a62.455,62.455,0,0,0-3.367-8.129,2.936,2.936,0,0,1,.576-3.385l6.687-6.7a9,9,0,0,0,0-12.717l-12.75-12.729a9,9,0,0,0-12.717,0l-6.684,6.681a2.936,2.936,0,0,1-3.382.579,62.3,62.3,0,0,0-8.132-3.385,2.927,2.927,0,0,1-1.979-2.795V9a9,9,0,0,0-9-9H144.512a9,9,0,0,0-9,9v9.431a2.926,2.926,0,0,1-1.967,2.795A62.492,62.492,0,0,0,125.42,24.6a2.93,2.93,0,0,1-3.385-.576l-6.7-6.687a9.014,9.014,0,0,0-12.717,0L89.9,30.067a9,9,0,0,0,0,12.72l9.832,9.85a3,3,0,0,0,4.246-4.234l-9.838-9.847a3,3,0,0,1,0-4.24L106.861,21.59a3,3,0,0,1,4.24,0l6.7,6.687a8.915,8.915,0,0,0,10.3,1.691,56.732,56.732,0,0,1,7.35-3.056,8.921,8.921,0,0,0,6.06-8.486V9a3,3,0,0,1,3-3H162.5a3,3,0,0,1,3,3v9.431a8.917,8.917,0,0,0,6.06,8.483,56.557,56.557,0,0,1,7.353,3.059,8.936,8.936,0,0,0,10.3-1.694l6.7-6.684a3,3,0,0,1,4.24,0L212.88,34.319a3,3,0,0,1,0,4.237l-6.687,6.7a8.924,8.924,0,0,0-1.691,10.3,56.733,56.733,0,0,1,3.056,7.35,8.918,8.918,0,0,0,8.486,6.06h9.431a3,3,0,0,1,3,3V89.958a3,3,0,0,1-3,3h-9.431a8.917,8.917,0,0,0-8.483,6.06,56.5,56.5,0,0,1-3.059,7.353,8.927,8.927,0,0,0,1.694,10.3l6.687,6.7a3,3,0,0,1,0,4.24l-12.732,12.726a3,3,0,0,1-4.237,0L186.06,130.5a3,3,0,1,0-4.307,4.173l.073.073,9.85,9.832a9,9,0,0,0,12.717,0l12.726-12.723a9,9,0,0,0,0-12.72l-6.678-6.69a2.939,2.939,0,0,1-.579-3.382,62.3,62.3,0,0,0,3.385-8.132,2.927,2.927,0,0,1,2.795-1.979h9.431a9,9,0,0,0,9-9V71.967A9,9,0,0,0,225.474,62.971Z" transform="translate(-55.07)"/>
  <path id="Trazado_3" data-name="Trazado 3" d="M141.889,273.788c-.03-.72-.081-1.436-.168-2.15-.1-.768-.21-1.529-.369-2.276-.1-.489-.243-.972-.375-1.457q-.252-.927-.567-1.826c-.147-.417-.3-.831-.456-1.241a26.712,26.712,0,0,0-1.322-2.807c-.039-.069-.063-.144-.1-.213a26.6,26.6,0,0,0-2.7-3.931c-.087-.108-.186-.21-.276-.315-.414-.489-.84-.963-1.286-1.415-.234-.243-.48-.471-.726-.7-.3-.279-.6-.555-.9-.819q-.546-.474-1.112-.918l-.492-.366A26.8,26.8,0,0,0,114.962,248c-.3,0-.6.045-.9.057-.639.018-1.28.054-1.925.12-.339.036-.681.075-1.02.123a27.493,27.493,0,0,0-2.906.543,27,27,0,0,0,.021,52.293.686.686,0,0,1,.15.027,28.6,28.6,0,0,0,3.143.6c.7.087,1.4.1,2.1.138.468.024.9.093,1.388.093.855,0,1.742-.057,2.648-.147a2.945,2.945,0,0,0,.3-.039c.729-.081,1.466-.189,2.219-.339.3-.057.579-.132.867-.2.528-.123,1.053-.252,1.592-.411.42-.126.828-.273,1.238-.417s.837-.3,1.262-.462.783-.348,1.169-.528c.5-.231,1-.459,1.5-.729h.018a35.494,35.494,0,0,0,7.685-5.55,9.443,9.443,0,0,0,1.607-1.967,32.011,32.011,0,0,0,4.516-12.324c.084-.579.159-1.157.2-1.748.042-.543.072-1.082.084-1.622,0-.171.024-.333.024-.5C141.949,274.586,141.907,274.2,141.889,273.788Zm-5.976,1.964c0,.249-.021.5-.036.744-.054.726-.147,1.451-.27,2.18a21.034,21.034,0,0,1-10.537,14.693c-.372.195-.738.378-1.1.546l-.249.12a21.657,21.657,0,0,1-5.469,1.655c-.132.021-.267.045-.4.063-.375.054-.744.1-1.109.132-.483.042-.969.066-1.463.075h-.627a21.038,21.038,0,0,1-2.123-.132l-.36-.042a22.19,22.19,0,0,1-2.45-.462,20.99,20.99,0,0,1-.021-40.664v0a21.713,21.713,0,0,1,5.269-.66,20.72,20.72,0,0,1,2.564.174c.228.027.453.069.678.1.648.1,1.289.231,1.922.393.207.054.414.1.618.159a21.175,21.175,0,0,1,4.573,1.925c.231.135.456.276.684.417.474.3.933.6,1.385.942.243.177.489.351.723.54a21.624,21.624,0,0,1,1.688,1.5c.213.216.408.453.615.678.345.375.681.759,1,1.163.222.279.435.567.645.858.3.432.6.882.87,1.337.15.249.3.492.453.747a20.579,20.579,0,0,1,1.032,2.2c.12.3.222.6.33.9.195.552.363,1.109.51,1.673.075.3.159.567.222.858a21.141,21.141,0,0,1,.381,2.456c.018.219.018.441.033.66C135.928,274.364,135.94,275.056,135.913,275.752Z" transform="translate(-55.125 -155.424)"/>
  <path id="Trazado_2" data-name="Trazado 2" d="M110.948,204.979h-3.3a2.951,2.951,0,0,1-2.777-1.937c-.366-.96-.759-1.9-1.181-2.828a2.957,2.957,0,0,1,.6-3.346l2.351-2.354a9.017,9.017,0,0,0-.015-12.711l-8.474-8.474a9.017,9.017,0,0,0-12.714,0l-2.351,2.348a2.969,2.969,0,0,1-3.346.6c-.93-.423-1.868-.816-2.831-1.2a2.948,2.948,0,0,1-1.946-2.783V169a9,9,0,0,0-9-9H53.975a9,9,0,0,0-9,9v3.3a2.951,2.951,0,0,1-1.937,2.777c-.96.366-1.9.759-2.828,1.181a2.965,2.965,0,0,1-3.346-.6L34.514,173.3a9.017,9.017,0,0,0-12.711,0l-8.474,8.5a9.017,9.017,0,0,0,0,12.714l2.348,2.351a2.957,2.957,0,0,1,.6,3.346c-.423.93-.816,1.868-1.184,2.831a2.947,2.947,0,0,1-2.8,1.934H9a9,9,0,0,0-9,9v11.994a9,9,0,0,0,9,9h3.3a2.951,2.951,0,0,1,2.777,1.937c.366.96.759,1.9,1.181,2.828a2.957,2.957,0,0,1-.6,3.346L13.3,245.43a9.017,9.017,0,0,0,0,12.711l8.474,8.474a9.017,9.017,0,0,0,12.714,0l2.351-2.348a2.969,2.969,0,0,1,3.346-.6c.93.423,1.868.816,2.831,1.2a2.948,2.948,0,0,1,1.961,2.783v3.3a9,9,0,0,0,9,9H65.969a9,9,0,0,0,9-9v-3.3a2.951,2.951,0,0,1,1.937-2.777c.96-.366,1.9-.759,2.828-1.181a2.965,2.965,0,0,1,3.346.6l2.354,2.351a9.02,9.02,0,0,0,12.711-.015l8.474-8.474a9.017,9.017,0,0,0,0-12.714l-2.348-2.351a2.957,2.957,0,0,1-.6-3.346c.423-.93.816-1.868,1.2-2.831a2.948,2.948,0,0,1,2.783-1.946h3.3a9,9,0,0,0,9-9V213.975A9,9,0,0,0,110.948,204.979Zm3,20.99a3,3,0,0,1-3,3h-3.3a9.026,9.026,0,0,0-8.4,5.8q-.477,1.259-1.032,2.48a9.023,9.023,0,0,0,1.8,10.063l2.345,2.348a3,3,0,0,1,0,4.241l0,0-8.474,8.474a3,3,0,0,1-4.24,0L87.3,260.027a9.014,9.014,0,0,0-10.063-1.8c-.813.369-1.64.714-2.474,1.031a9.023,9.023,0,0,0-5.8,8.39v3.3a3,3,0,0,1-3,3H53.975a3,3,0,0,1-3-3v-3.3a9.026,9.026,0,0,0-5.8-8.4q-1.259-.477-2.48-1.032a9.026,9.026,0,0,0-10.063,1.8l-2.348,2.345a3,3,0,0,1-4.241,0l0,0L17.569,253.9a3,3,0,0,1,0-4.24l2.348-2.351a9.023,9.023,0,0,0,1.8-10.063c-.369-.813-.714-1.64-1.032-2.474a9.023,9.023,0,0,0-8.39-5.805H9a3,3,0,0,1-3-3V213.975a3,3,0,0,1,3-3h3.3a9.026,9.026,0,0,0,8.4-5.8q.477-1.259,1.032-2.48a9.023,9.023,0,0,0-1.8-10.063l-2.357-2.348a3,3,0,0,1,0-4.241l0,0,8.474-8.474a3,3,0,0,1,4.24,0l2.351,2.348a9.014,9.014,0,0,0,10.063,1.8c.813-.369,1.64-.714,2.474-1.032a9.023,9.023,0,0,0,5.808-8.39V169a3,3,0,0,1,3-3H65.969a3,3,0,0,1,3,3v3.3a9.026,9.026,0,0,0,5.8,8.4q1.259.477,2.48,1.032a9.014,9.014,0,0,0,10.063-1.8l2.348-2.345a3.017,3.017,0,0,1,4.243,0l8.474,8.474a3,3,0,0,1,0,4.24l-2.348,2.351a9.023,9.023,0,0,0-1.8,10.063c.369.813.714,1.64,1.032,2.474a9.023,9.023,0,0,0,8.39,5.8h3.3a3,3,0,0,1,3,3v11.994Z" transform="translate(0 -100.544)"/>
</svg>
