<!-- Generated by IcoMoon.io -->
<svg version="1.1" xmlns="http://www.w3.org/2000/svg" width="1024" height="1024" viewBox="0 0 1024 1024" fill="#ffffff">
<title></title>
<g id="icomoon-ignore">
</g>
<path d="M465.536 585.142h353.482c8.54 0 15.47-0.458 15.47-9.142 0-8.612-6.93-9.142-15.47-9.142h-353.482c-8.668 0-15.524 0.53-15.524 9.142 0 8.686 6.856 9.142 15.524 9.142zM465.536 676.572h353.482c8.54 0 15.47-9.674 15.47-18.212 0-8.612-6.93-18.358-15.47-18.358l-353.482-0.002c-8.668 0-15.524 9.746-15.524 18.358 0 8.54 6.856 18.214 15.524 18.214zM945.92 336.31l-291.986-291.912c-5.614-5.394-11.3-7.826-19.128-7.826h-344.1c-71.332 0-126.134 56.63-126.134 127.89v394.514c0 16.512 10.954 29.952 27.318 29.952 16.512 0 27.538-13.422 27.538-29.952v-394.514c0-38.528 32.806-73.034 71.278-73.034h312.722v109.714h-137.892c-8.668 0-15.524 9.782-15.524 18.322 0 8.686 6.858 18.25 15.524 18.25h137.892v23.332c0 6.236-5.704 13.24-4.864 13.24h-133.028c-8.668 0-15.524 9.636-15.524 18.25 0 8.594 6.858 18.322 15.524 18.322h140.982c19.438 54.858 65.756 73.142 119.534 73.142h169.948v451.51c0 38.62-28.452 78.776-66.98 78.776h-508.38c-16.494 0-29.788 10.934-29.788 27.428 0 16.42 13.294 27.428 29.788 27.428h508.38c71.406 0 121.838-62.080 121.838-133.632v-478.024c0-8.028 0.658-15.58-4.938-21.176zM357.98 518.838c-24.758-10.422-53.302 1.262-63.708 26.094l-110.574 264.156-30.774-51.822c-13.77-23.242-43.648-30.72-66.852-16.932-23.076 13.714-30.702 43.428-16.86 66.78l80.292 135.132c9.582 15.652 27.062 24.814 45.386 23.644 18.322-1.334 34.34-12.874 41.472-29.86l147.84-353.482c10.368-24.816-1.318-53.414-26.222-63.71zM402.286 216.668c0-8.576-6.912-15.526-15.452-15.526h-78.812c-8.538 0-15.45 6.95-15.45 15.526v78.666c0 8.574 6.912 15.524 15.45 15.524h78.812c8.54 0 15.452-6.95 15.452-15.526v-78.664zM310.858 237.714h54.858v36.572h-54.858v-36.572z"></path>
</svg>
