<svg version="1.1" id="Layer_1" xmlns="http://www.w3.org/2000/svg" xmlns:xlink="http://www.w3.org/1999/xlink" x="0" y="0" viewBox="0 0 265.5 179.5" xml:space="preserve"><style>.st0{clip-path:url(#SVGID_2_)}.st2{clip-path:url(#SVGID_4_)}.st5{fill:#1b2d54}.st6{fill:#696667}.st10{fill:#2e2a27}</style><switch><g><defs><path id="SVGID_1_" d="M243.7 166.1H22.6c-5.5 0-9.9-4.4-9.9-9.9V22.9c0-5.5 4.4-9.9 9.9-9.9h221.1c5.5 0 9.9 4.4 9.9 9.9v133.2c0 5.5-4.4 10-9.9 10z"/></defs><clipPath id="SVGID_2_"><use xlink:href="#SVGID_1_" overflow="visible"/></clipPath><g class="st0"><defs><path id="SVGID_3_" d="M22.6 173.2c-9.4 0-17-7.6-17-17V22.9c0-9.4 7.6-17 17-17h221.1c9.4 0 17 7.6 17 17v133.2c0 9.4-7.6 17-17 17H22.6z"/></defs><clipPath id="SVGID_4_"><use xlink:href="#SVGID_3_" overflow="visible"/></clipPath><path d="M22.6 173.2c-9.4 0-17-7.6-17-17V22.9c0-9.4 7.6-17 17-17h221.1c9.4 0 17 7.6 17 17v133.2c0 9.4-7.6 17-17 17H22.6z" clip-path="url(#SVGID_4_)" fill="#f5f5f6"/><g class="st2"><path fill="#fff" d="M263 170.1L66.6 52.9 263-62.3z"/><path fill="#e1e1e2" d="M-3.6 11l70.2 41.9L-3.6 94z"/></g><g class="st2"><path class="st5" d="M187.9 77.9v2.8h-1v-7h2.9c1.4 0 2.2.9 2.2 2.1 0 1.3-.8 2.1-2.2 2.1h-1.9zm0-.9h1.8c.8 0 1.3-.4 1.3-1.2 0-.8-.5-1.2-1.3-1.2h-1.8V77zm9.3 3.7l-1.7-2.7H194v2.7h-1v-7h2.9c1.4 0 2.2.9 2.2 2.1 0 1-.5 1.8-1.6 2l1.8 2.9h-1.1zm-3.1-3.6h1.8c.8 0 1.3-.4 1.3-1.3 0-.8-.5-1.3-1.3-1.3h-1.8v2.6zm9.8-2.5h-3.5v2.1h3v.9h-3v2.3h3.6v.9h-4.5v-7h4.5v.8zm2.3 3.3v2.8h-1v-7h2.9c1.4 0 2.2.9 2.2 2.1 0 1.3-.8 2.1-2.2 2.1h-1.9zm0-.9h1.8c.8 0 1.3-.4 1.3-1.2 0-.8-.5-1.2-1.3-1.2h-1.8V77zm9.2 1.9h-2.7l-.6 1.8h-1l2.4-7.1h1.2l2.4 7.1H216l-.6-1.8zm-1.4-4l-1.1 3.2h2.3l-1.2-3.2zm4 2.2c0-2 .6-3.6 3-3.6.8 0 1.5.1 2.4.4l-.2.8c-1.1-.3-1.5-.3-2.1-.3-1.6 0-2 1.2-2 2.7 0 1.6.4 2.8 2 2.8.5 0 .9-.1 1.3-.3V78H221v-.9h2.3v3.2c-.7.3-1.4.6-2.4.6-2.3-.1-2.9-1.7-2.9-3.8zm6.6 0c0-2 .6-3.6 3-3.6s3 1.6 3 3.6-.6 3.7-3 3.7-3-1.7-3-3.7zm1 0c0 1.5.3 2.8 2 2.8s2-1.3 2-2.8c0-1.5-.3-2.7-2-2.7s-2 1.2-2 2.7z"/></g><g class="st2"><path class="st6" d="M84 74.9c.2.3.4.7.6 1.1.1.4.2.8.2 1.3s-.1.9-.2 1.3-.3.8-.6 1.1c-.3.4-.2 1.1.2 1.4.4.3 1.1.2 1.4-.2.4-.5.7-1 .9-1.6.2-.6.3-1.2.3-1.9s-.1-1.3-.3-1.9c-.2-.6-.5-1.1-.9-1.6-.3-.4-1-.5-1.4-.2-.5.1-.6.8-.2 1.2m3.4-1.9c.8 1.2 1.2 2.7 1.2 4.2s-.4 3-1.2 4.2c-.3.5-.1 1.1.3 1.4.5.3 1.1.1 1.4-.3.9-1.5 1.5-3.3 1.5-5.3 0-1.9-.5-3.7-1.5-5.3-.3-.5-.9-.6-1.4-.3-.4.3-.6 1-.3 1.4m3.6-1.9c1.1 1.8 1.7 3.9 1.7 6.1 0 2.2-.6 4.3-1.7 6.1-.3.5-.1 1.1.4 1.4.5.3 1.1.1 1.4-.4a14.21 14.21 0 0 0 0-14.2c-.3-.5-.9-.6-1.4-.4-.5.3-.6.9-.4 1.4"/><path class="st6" d="M94.7 69.2c1.3 2.4 2.1 5.1 2.1 8 0 2.9-.8 5.7-2.1 8-.3.5-.1 1.1.4 1.4.5.3 1.1.1 1.4-.4a18.04 18.04 0 0 0 0-18c-.3-.5-.9-.7-1.4-.4-.5.3-.7.9-.4 1.4"/></g><g class="st2"><path d="M39.6 30.1h9.8v9.8h-9.8zm21.3-.8c1 0 1.4.2 1.4.9 0 .6-.5.9-1.4.9h-1.7v-1.7h1.7v-.1zm-1.6 3.2h1.8c1 0 1.4.3 1.4.9 0 .7-.5 1-1.5 1h-1.8v-1.9h.1zm2.2 3.4c.9 0 1.5-.2 2.1-.7.5-.4.8-1 .8-1.8s-.4-1.4-1.1-1.9c.6-.4.8-1 .8-1.7 0-1.5-1.1-2.3-2.9-2.3h-3.7v8.3h4v.1zm8.7-7.7c-.1-.3-.5-.6-.8-.6h-1.1L65 35.9h1.8l.6-1.6h3.2l.7 1.6h1.8l-2.9-7.7zm-2.1 4.6l1-2.7 1 2.7h-2zm13.6 3.1v-8.3H80v5.6L76.9 28a.9.9 0 0 0-.8-.4h-1.6v8.3h1.8v-5.6l3.1 5.2c.2.3.5.4.8.4h1.5zm8.2-2.6c-.6.8-1.3 1.2-2.2 1.2-.7 0-1.3-.2-1.8-.7-.5-.5-.7-1.1-.7-1.9 0-.8.2-1.4.7-1.9.5-.5 1.1-.7 1.7-.7.6 0 1.2.2 1.7.6.3.3.8.2 1.2-.1l.5-.6c-.8-1-1.9-1.6-3.3-1.6-1.2 0-2.3.4-3.1 1.2-.8.8-1.2 1.8-1.2 3.1s.4 2.3 1.2 3.1c.8.8 1.9 1.2 3.2 1.2 1.4 0 2.5-.5 3.4-1.6l-1.3-1.3zm9.3-4.5c-.8-.8-1.8-1.2-3-1.2a4.07 4.07 0 0 0-4.2 4.2c0 1.2.4 2.3 1.2 3.1.8.8 1.8 1.2 3 1.2s2.2-.4 3-1.2c.8-.8 1.2-1.8 1.2-3.1.1-1.2-.4-2.2-1.2-3zM98 33.7c-.4.5-1 .8-1.8.8s-1.4-.2-1.8-.8a2.94 2.94 0 0 1 0-3.8c.5-.5 1.1-.8 1.8-.8s1.3.3 1.8.8.7 1.1.7 1.8c0 .8-.3 1.5-.7 2zm25.1 5.9c-.1-.3-.5-.6-.8-.6h-1.1l-3.2 8.3h1.8l.6-1.6h3.2l.7 1.6h1.8l-3-7.7zm-2.1 4.5l1-2.7 1 2.7h-2zm-45.4.6c-.6.8-1.3 1.2-2.2 1.2-.7 0-1.3-.2-1.8-.7-.5-.5-.7-1.1-.7-1.9 0-.8.2-1.4.7-1.9.5-.5 1.1-.7 1.7-.7.6 0 1.2.2 1.7.6.4.3.9.2 1.2-.1l.5-.6c-.8-1-1.9-1.6-3.3-1.6-1.2 0-2.3.4-3.1 1.2-.8.8-1.2 1.8-1.2 3.1s.4 2.3 1.2 3.1c.8.8 1.9 1.2 3.2 1.2 1.4 0 2.5-.5 3.4-1.6l-1.3-1.3zM67.4 39h-1.8v8.3h1.8V39zm21.8 0h-1.7v8.3h1.8V39h-.1zm-3.9 8.3V39h-.9c-.5 0-.9.4-.9.9v2.4H80V39h-1.8v8.3H80v-3.4h3.5v3.4h1.8zm-22-7.5c-.6-.5-1.4-.8-2.4-.8h-3.4v8.3h1.8v-2.6h1.6c1 0 1.7-.3 2.3-.8.6-.5.9-1.2.9-2.1.1-.8-.2-1.5-.8-2zm-2.7 3.3h-1.3v-2.4h1.3c1.2 0 1.8.4 1.8 1.2 0 .8-.6 1.2-1.8 1.2zm38 4.2V39h-1.7v5.6l-3.1-5.2c-.2-.2-.5-.4-.8-.4h-1.6v8.3h1.8v-5.6l3.1 5.2c.2.3.5.4.8.4h1.5zm8.2-2.6c-.6.8-1.3 1.2-2.2 1.2-.7 0-1.3-.2-1.8-.7-.5-.5-.7-1.1-.7-1.9 0-.8.2-1.4.7-1.9.5-.5 1.1-.7 1.7-.7.6 0 1.2.2 1.7.6.3.3.8.2 1.2-.1l.5-.6c-.8-1-1.9-1.6-3.3-1.6-1.2 0-2.3.4-3.1 1.2-.8.8-1.2 1.8-1.2 3.1s.4 2.3 1.2 3.1c.8.8 1.9 1.2 3.2 1.2 1.4 0 2.5-.5 3.4-1.6l-1.3-1.3zm9.8 2.6V39h-.9c-.5 0-.9.4-.9.9v2.4h-3.5V39h-1.8v8.3h1.8v-3.4h3.5v3.4h1.8z" fill="#12284c"/><path d="M43.7 27.7H31.3v13.1c0 3.6 3 6.6 6.6 6.6H51V27.7h-7.3zm4 9.8h-3v-3.6h-3.6v-3h6.6v6.6z" fill="#ffd100"/></g></g><g class="st0"><path class="st5" d="M209.5 155.8l2.7-16.7h4.2l-2.6 16.7zm19.7-16.3c-.8-.3-2.2-.7-3.8-.7-4.2 0-7.2 2.3-7.2 5.5 0 2.4 2.1 3.7 3.7 4.5 1.7.8 2.2 1.3 2.2 2.1 0 1.1-1.3 1.6-2.6 1.6-1.7 0-2.6-.3-4-.9l-.5-.3-.6 3.7c1 .5 2.8.9 4.7.9 4.5 0 7.4-2.2 7.4-5.7 0-1.9-1.1-3.3-3.6-4.5-1.5-.8-2.4-1.3-2.4-2.1 0-.7.8-1.4 2.4-1.4 1.4 0 2.4.3 3.2.6l.4.2.7-3.5zm5.7 10.4c.4-1 1.7-4.7 1.7-4.7s.3-1 .6-1.6l.3 1.4s.8 4 1 4.8h-3.6zm5.3-10.8h-3.3c-1 0-1.8.3-2.2 1.4l-6.3 15.3h4.5s.7-2.1.9-2.5h5.5c.1.6.5 2.5.5 2.5h4l-3.6-16.7zm-29.8 0l-6.7 16.7h-4.5l-3.8-14.5c-1.3-.8-2.8-1.4-4.5-1.8l.1-.4h6.9c.9 0 1.7.4 1.9 1.4l1.5 7.7.4 2.3 4.2-11.4h4.5z"/></g><g id="diams_silver_1_" class="st0"><linearGradient id="SVGID_5_" gradientUnits="userSpaceOnUse" x1="45.03" y1="64.81" x2="69.37" y2="89.14"><stop offset="0" stop-color="#898586"/><stop offset=".12" stop-color="#aba8a9"/><stop offset=".29" stop-color="#d8d8da"/><stop offset=".31" stop-color="#d3d2d5"/><stop offset=".43" stop-color="#b8b7b8"/><stop offset=".49" stop-color="#aeadae"/><stop offset=".55" stop-color="#bbbabb"/><stop offset=".75" stop-color="#e4e3e4"/><stop offset=".85" stop-color="#c2bebf"/><stop offset="1" stop-color="#898586"/></linearGradient><path d="M72.1 85.1c0 1.7-1.4 3.2-3.2 3.2H45.4c-1.7 0-3.2-1.4-3.2-3.2V68.9c0-1.7 1.4-3.2 3.2-3.2H69c1.7 0 3.2 1.4 3.2 3.2v16.2z" fill="url(#SVGID_5_)"/><path class="st10" d="M57.1 66.7c-.4 0-.7.3-.7.7 0 .4.3.7.7.7.4 0 .7-.3.7-.7 0-.4-.3-.7-.7-.7z"/><path class="st10" d="M69 65.6H45.4c-1.8 0-3.2 1.4-3.2 3.2V85c0 1.8 1.5 3.2 3.2 3.2H69c1.8 0 3.2-1.4 3.2-3.2V68.9c0-1.8-1.5-3.3-3.2-3.3zm3.1 3.3v4.3H64a1.6 1.6 0 0 0-1.6 1.3c0 .3-.1.7-.2 1-.3 1.1-.1 3.1.2 3.7.2.6.1 1.6-.2 2.7-.1.2-1.7 5.4-5 5.4s-4.9-5.2-5-5.4c-.3-1-.4-2.1-.2-2.7.2-.7.5-2.6.2-3.7-.3-.9-.4-1.7-.3-2.1.6-3.4 3.2-5.8 3.6-6.1.4-.3.6-.6.6-.6V66h2.2v.6s.2.4.6.6c.2.1 1.4 1.1 2.4 2.8.1.1.1.1.2.1h.1c.1-.1.2-.2.1-.4-1-1.6-2.2-2.8-2.5-3-.2-.1-.3-.3-.4-.4V66h4c.5 0 .6.6.6.6H71c.7.6 1.1 1.4 1.1 2.3zM64 80.3s-.5-.1-.7-.5c-.2-.4-.7-1.6-.7-2.8 0-1.2.5-2.5.7-2.8.2-.4.7-.5.7-.5h8.1v6.6H64zm8.1.5v4.3c0 .9-.4 1.7-1 2.2h-7.6s-.1.6-.6.6H59v-.4l.4-.4c.5-.3 2.8-2.2 3.7-5.8 0 0 .2-.5.6-.5h8.4zm-21.6-7.1s.5.1.7.5c.2.4.7 1.6.7 2.8 0 1.2-.5 2.5-.7 2.8-.2.4-.7.5-.7.5h-8.1v-6.6h8.1zm-8.1-.6v-4.3c0-.9.4-1.7 1-2.2H51s.1-.6.6-.6h3.9v.4l-.4.4c-.5.3-2.8 2.2-3.7 5.8 0 0-.2.5-.6.5h-8.4zm0 12v-4.3h8.4c.4 0 .6.5.6.5 1 3.6 3.2 5.5 3.7 5.8.2.1.3.3.4.4v.4h-3.9c-.5 0-.6-.6-.6-.6h-7.6c-.7-.5-1-1.3-1-2.2z"/></g></g></switch></svg>