<?xml version="1.0" encoding="UTF-8"?>
<svg width="32px" height="44px" viewBox="0 0 32 44" version="1.1" xmlns="http://www.w3.org/2000/svg" xmlns:xlink="http://www.w3.org/1999/xlink">
    <!-- Generator: Sketch 58 (84663) - https://sketch.com -->
    <title>Fill 1</title>
    <desc>Created with Sketch.</desc>
    <g id="Private-CEO" stroke="none" stroke-width="1" fill="none" fill-rule="evenodd">
        <g id="5-Products-CEO" transform="translate(-372.000000, -319.000000)" fill="#00317B">
            <g id="Content" transform="translate(0.000000, 80.000000)">
                <path d="M380,249 C380.276,249 380.526,248.8899 380.707,248.71 L387,242.4099 L387,274 C387,274.55 387.448,275 388,275 C388.552,275 389,274.55 389,274 L389,242.4099 L395.293,248.71 C395.474,248.8899 395.724,249 396,249 C396.552,249 397,248.55 397,248 C397,247.72 396.888,247.47 396.707,247.29 L388.707,239.29 C388.526,239.1101 388.276,239 388,239 C387.724,239 387.474,239.1101 387.293,239.29 L379.293,247.29 C379.112,247.47 379,247.72 379,248 C379,248.55 379.448,249 380,249 Z M403,253 L392,253 C391.448,253 391,253.45 391,254 C391,254.55 391.448,255 392,255 L402,255 L402,281 L374,281 L374,255 L384,255 C384.552,255 385,254.55 385,254 C385,253.45 384.552,253 384,253 L373,253 C372.448,253 372,253.45 372,254 L372,282 C372,282.55 372.448,283 373,283 L403,283 C403.552,283 404,282.55 404,282 L404,254 C404,253.45 403.552,253 403,253 Z" id="Fill-1"></path>
            </g>
        </g>
    </g>
</svg>