<svg xmlns="http://www.w3.org/2000/svg" xmlns:xlink="http://www.w3.org/1999/xlink" width="200" height="124.5" viewBox="0 0 200 124.5"><defs><linearGradient id="a" x1="0.5" x2="0.5" y2="1" gradientUnits="objectBoundingBox"><stop offset="0" stop-color="#fff"/><stop offset="1" stop-color="#e1e1e1"/></linearGradient></defs><g transform="translate(-6706 -3136)"><g transform="translate(6706 3136)" stroke="#e1e1e1" stroke-width="1" fill="url(#a)"><rect width="200" height="124.5" rx="12" stroke="none"/><rect x="0.5" y="0.5" width="199" height="123.5" rx="11.5" fill="none"/></g><g transform="translate(6736 3173.02)"><path d="M653.079,942.8a.994.994,0,0,0-1,1v2.029h-5.206a.806.806,0,0,0-.254-.558l-3.155-3.162a1.318,1.318,0,0,0-1-.413h-2.812a1.268,1.268,0,0,0-.971.413l-3.124,3.127a.892.892,0,0,0-.287.586H629.73V940.3a1.235,1.235,0,1,0-2.47,0v24.929a1.235,1.235,0,0,0,2.47,0v-4.177h22.357v4.334a1,1,0,1,0,2,0V943.8A1.014,1.014,0,0,0,653.079,942.8Zm-1,13.007H649.8v-8.042h2.282Zm-18.47,0,.015-8.042h2.029v8.042Zm3.979-8.042h2.151v8.042h-2.151Zm4.058,0H643.8v8.042h-2.153Zm4.088,0h2.138v8.042h-2.138Zm-.791-1.943h-1.4v-1.405Zm-6.34-1.39v1.39h-1.385Zm-6.921,3.332-.013,8.042H629.73v-8.042Zm-1.955,11.339V957.75H636.5c.041,0,.068.028.119.028s.074-.025.122-.028h15.348v1.357Z" transform="translate(-536.296 -936.676)" fill="#aaa"/><path d="M674.886,934.251a2.336,2.336,0,1,0-2.336-2.336A2.336,2.336,0,0,0,674.886,934.251Z" transform="translate(-569.926 -929.6)" fill="#aaa"/><path d="M277.051,1053.988a22.726,22.726,0,0,1-7.765,1.379c-3.8,0-6.941-.971-9.409-3.325a12.949,12.949,0,0,1-3.507-9.383c0-7.5,5.189-12.989,13.626-12.989a15.788,15.788,0,0,1,6.31,1.156l-.824,2.65a12.5,12.5,0,0,0-5.561-1.08c-6.119,0-10.116,3.8-10.116,10.116,0,6.383,3.8,10.144,9.705,10.144a10.6,10.6,0,0,0,4.332-.672v-7.5h-5.072v-2.612h8.288Z" transform="translate(-256.37 -1005.678)" fill="#aaa"/><path d="M369.081,1071.849c0,1.864.038,3.507.15,4.927h-2.909l-.185-2.949h-.068a6.754,6.754,0,0,1-5.975,3.36c-2.838,0-6.233-1.608-6.233-7.915v-10.565h3.284v9.959c0,3.434,1.08,5.785,4.032,5.785a4.721,4.721,0,0,0,4.331-3.02,4.536,4.536,0,0,0,.3-1.679V1058.7h3.284Z" transform="translate(-329.877 -1027.346)" fill="#aaa"/><path d="M440.966,1071.243a30.538,30.538,0,0,0,.254,4.332H438.27l-.3-2.282h-.114a6.672,6.672,0,0,1-5.523,2.688,5.148,5.148,0,0,1-5.523-5.191c0-4.367,3.88-6.756,10.862-6.72v-.373c0-1.491-.408-4.217-4.106-4.179a8.714,8.714,0,0,0-4.74,1.344l-.748-2.2a11.675,11.675,0,0,1,5.975-1.57c5.559,0,6.9,3.771,6.9,7.392Zm-3.2-4.889c-3.583-.076-7.654.561-7.654,4.058a2.879,2.879,0,0,0,3.063,3.137,4.562,4.562,0,0,0,4.441-3.023,3.4,3.4,0,0,0,.15-1.032Z" transform="translate(-384.872 -1026.145)" fill="#aaa"/><path d="M500.162,1063.221c0-2.125-.038-3.956-.152-5.635h2.878l.15,3.55h.109a5.467,5.467,0,0,1,5.042-3.956,3.551,3.551,0,0,1,.9.112v3.061a11.193,11.193,0,0,0-1.161-.073c-2.313,0-3.956,1.752-4.4,4.179a10.514,10.514,0,0,0-.112,1.57v9.637h-3.3Z" transform="translate(-439.988 -1026.212)" fill="#aaa"/><path d="M556.557,1025.46V1047.3c0,1.605.038,3.436.152,4.669h-2.949l-.15-3.134h-.074a6.64,6.64,0,0,1-6.122,3.55c-4.37,0-7.765-3.7-7.765-9.185-.038-6.048,3.73-9.705,8.1-9.705a6.02,6.02,0,0,1,5.45,2.724h.074v-10.75Zm-3.3,15.792a6.105,6.105,0,0,0-.15-1.418,4.834,4.834,0,0,0-4.74-3.771c-3.4,0-5.412,2.987-5.412,6.944,0,3.695,1.826,6.72,5.326,6.72a4.985,4.985,0,0,0,4.818-3.921,5.723,5.723,0,0,0,.15-1.418Z" transform="translate(-469.99 -1002.536)" fill="#aaa"/><path d="M622.932,1067c.074,4.443,2.876,6.271,6.16,6.271a12.5,12.5,0,0,0,5-.9l.6,2.315a14.707,14.707,0,0,1-6.046,1.156c-5.526,0-8.876-3.7-8.876-9.109,0-5.485,3.244-9.781,8.508-9.781,5.9,0,7.43,5.191,7.43,8.513a8.773,8.773,0,0,1-.112,1.567Zm9.6-2.351c.036-2.054-.86-5.341-4.519-5.341-3.358,0-4.778,3.063-5.039,5.341Z" transform="translate(-530.385 -1026.048)" fill="#aaa"/><path d="M695.41,1063.221c0-2.125-.038-3.956-.15-5.635h2.873l.152,3.55h.112a5.462,5.462,0,0,1,5.039-3.956,3.5,3.5,0,0,1,.9.112v3.061a11.1,11.1,0,0,0-1.156-.074c-2.315,0-3.959,1.752-4.408,4.179a10.507,10.507,0,0,0-.112,1.57v9.637h-3.284Z" transform="translate(-587.136 -1026.212)" fill="#aaa"/><path d="M747.773,1029l-4.565,5.326H740.9l3.3-5.326Zm-6.872,25.614v-18.069h3.3v18.069Z" transform="translate(-621.873 -1005.178)" fill="#aaa"/><path d="M780.951,1071.243a30.21,30.21,0,0,0,.254,4.332h-2.942l-.3-2.282h-.114a6.679,6.679,0,0,1-5.523,2.688,5.151,5.151,0,0,1-5.529-5.191c0-4.367,3.883-6.756,10.864-6.72v-.373c0-1.491-.408-4.217-4.106-4.179a8.734,8.734,0,0,0-4.742,1.344l-.746-2.2a11.682,11.682,0,0,1,5.975-1.57c5.561,0,6.906,3.771,6.906,7.392Zm-3.211-4.889c-3.586-.076-7.654.561-7.654,4.058a2.88,2.88,0,0,0,3.061,3.137,4.561,4.561,0,0,0,4.443-3.023,3.4,3.4,0,0,0,.15-1.047Z" transform="translate(-641.204 -1026.145)" fill="#aaa"/><path d="M346.054,990.46c0-1.877-.03-3.388-.124-4.778h2.391l.15,2.508h.061a5.649,5.649,0,0,1,5.171-2.84c3.568,0,6.228,2.99,6.228,7.436,0,5.262-3.233,7.862-6.654,7.862a5.079,5.079,0,0,1-4.5-2.3h-.063v7.961h-2.66Zm2.66,3.9a4.407,4.407,0,0,0,.119,1.088,4.073,4.073,0,0,0,3.961,3.114c2.81,0,4.443-2.3,4.443-5.655,0-2.934-1.509-5.442-4.311-5.442a4.25,4.25,0,0,0-4.058,3.266,7.167,7.167,0,0,0-.15,1.088Z" transform="translate(-323.891 -971.867)" fill="#f35400"/><path d="M414.24,959.7h2.66v21.472h-2.66Z" transform="translate(-375.296 -952.082)" fill="#f35400"/><path d="M449.058,996.836a24.461,24.461,0,0,0,.213,3.51h-2.389l-.241-1.846h-.091a5.4,5.4,0,0,1-4.476,2.176,4.168,4.168,0,0,1-4.473-4.2c0-3.538,3.145-5.473,8.8-5.445v-.3c0-1.21-.332-3.419-3.327-3.388a7.043,7.043,0,0,0-3.839,1.091l-.606-1.775a9.49,9.49,0,0,1,4.839-1.268c4.506,0,5.594,3.043,5.594,5.985Zm-2.6-3.961c-2.9-.061-6.2.454-6.2,3.3a2.328,2.328,0,0,0,2.478,2.536,3.7,3.7,0,0,0,3.6-2.447,2.733,2.733,0,0,0,.122-.85Z" transform="translate(-392.979 -971.795)" fill="#f35400"/><path d="M497.419,972.82v3.51h3.8v2.029h-3.8v7.892c0,1.816.507,2.843,2,2.843a5.016,5.016,0,0,0,1.542-.18l.122,2.029a7.226,7.226,0,0,1-2.361.363,3.8,3.8,0,0,1-2.871-1.118,5.715,5.715,0,0,1-1.03-3.839v-7.993H492.55v-2.029h2.267v-2.7Z" transform="translate(-434.36 -962.333)" fill="#f35400"/><path d="M545.5,996.838a24.469,24.469,0,0,0,.213,3.51h-2.389l-.241-1.846h-.094a5.4,5.4,0,0,1-4.476,2.176,4.167,4.167,0,0,1-4.471-4.2c0-3.538,3.142-5.473,8.8-5.445v-.3c0-1.21-.332-3.418-3.327-3.388a7.044,7.044,0,0,0-3.842,1.09l-.6-1.775a9.434,9.434,0,0,1,4.839-1.268c4.5,0,5.592,3.043,5.592,5.985Zm-2.592-3.961c-2.9-.061-6.2.454-6.2,3.3a2.329,2.329,0,0,0,2.48,2.536,3.692,3.692,0,0,0,3.6-2.447,2.661,2.661,0,0,0,.122-.85Z" transform="translate(-465.674 -971.796)" fill="#f35400"/></g></g></svg>