<svg xmlns="http://www.w3.org/2000/svg" xmlns:xlink="http://www.w3.org/1999/xlink" width="200.006" height="124.5" viewBox="0 0 200.006 124.5"><defs><linearGradient id="a" x1="0.5" x2="0.5" y2="1" gradientUnits="objectBoundingBox"><stop offset="0" stop-color="#19d6f8"/><stop offset="1" stop-color="#0093d8"/></linearGradient><linearGradient id="b" x1="0.5" x2="0.5" y2="1" gradientUnits="objectBoundingBox"><stop offset="0" stop-color="#fae4e1"/><stop offset="1" stop-color="#dfcdc5"/></linearGradient></defs><g transform="translate(-6706 -3136)"><rect width="200" height="124.5" rx="12" transform="translate(6706 3136)" fill="url(#a)"/><path d="M10,0H51a0,0,0,0,1,0,0V10A10,10,0,0,1,41,20H0a0,0,0,0,1,0,0V10A10,10,0,0,1,10,0Z" transform="translate(6706 3136)" fill="#fff"/><path d="M4047.868,2736.5s-26.368,16.93-26.368,61.633S4047.868,2861,4047.868,2861h55.042a12.559,12.559,0,0,0,8.207-3.875,11.512,11.512,0,0,0,3.134-7.877v-101.9a12.381,12.381,0,0,0-3.008-6.852c-2.914-3.531-7.783-4-7.783-4Z" transform="translate(2790.75 399.5)" fill="url(#b)"/><path d="M4047.8,2736.5s-26.3,16.93-26.3,61.633S4047.8,2861,4047.8,2861h54.894a12.508,12.508,0,0,0,8.185-3.875,11.531,11.531,0,0,0,3.125-7.877v-101.9a12.4,12.4,0,0,0-3-6.852c-2.906-3.531-7.762-4-7.762-4Z" transform="translate(2792 399.5)" fill="#d8d5d5"/><text transform="translate(6719 3149)" fill="#2eb1f0" font-size="11" font-family="TwCenMT-Bold, Tw Cen MT" font-weight="700" letter-spacing="-0.034em"><tspan x="0" y="0">AVAL</tspan></text><g transform="translate(6807.404 3132.5)"><path d="M253.162,67.632c2.081.18,9.933,0,9.933,0a3.955,3.955,0,0,0,3.956-3.956V46.557a3.907,3.907,0,0,0-3.907-3.907H244.52s2.007,22.739,7.976,24.836A2.646,2.646,0,0,0,253.162,67.632Z" transform="translate(-181.551 -15.711)" fill="#00adef"/><path d="M283.347,51.764H273.3v-1.5l-.018.005a4.892,4.892,0,0,0,3.029-4.523,5.481,5.481,0,0,0-1.343-3.367c-.194-.081-7.014.1-7.128.031-.372-.241-1.313,2.047-1.313,3.336a4.833,4.833,0,0,0,2.8,4.421c.093.029.027.077.027.077l-.065-.189,0,1.711H267.1l3.386,6.723h.941l4.516,8.983H280.5l-6.053-11.942h8.9V51.764Z" transform="translate(-199.609 -15.468)" fill="#fff"/><path d="M272.06,163.414s-.67-1.5,2.826-.749,1.5-1.885,1.5-1.885H270.29Z" transform="translate(-202.315 -112.63)" fill="#da8829"/><path d="M63.134,23.5H29.208A3.709,3.709,0,0,0,25.5,27.208v17.27a3.594,3.594,0,0,0,3.595,3.595H75.552Z" fill="#fbae46"/><path d="M43.98,45.04V35.15h1.214v4.062h4.771V35.15h1.214v9.888H49.965v-4.66H45.194V45.04Z" transform="translate(-15.162 -9.558)" fill="#fff"/><path d="M99.075,35.15h1.146v5.714a7.787,7.787,0,0,1-.3,2.358,2.724,2.724,0,0,1-1.086,1.454,3.507,3.507,0,0,1-2.006.533,3.268,3.268,0,0,1-2.568-.957,5.138,5.138,0,0,1-.853-3.386V35.15h1.146v5.706a6.075,6.075,0,0,0,.223,1.943,1.757,1.757,0,0,0,.731.914,2.313,2.313,0,0,0,1.235.314,2.206,2.206,0,0,0,1.776-.648,4.086,4.086,0,0,0,.551-2.523V35.15Z" transform="translate(-56.128 -9.558)" fill="#fff"/><path d="M138.47,45.032v-9.89h2.085l2.489,7,.5,1.463q.183-.547.558-1.585l2.514-6.881h1.867v9.888h-1.334V36.76l-3.056,8.27h-1.246l-3.04-8.412V45.03H138.47Z" transform="translate(-93.412 -9.55)" fill="#fff"/><path d="M200.92,45.048l3.539-9.888h1.3l3.758,9.888h-1.39l-1.067-3H203.2l-1,3Zm2.632-4.062h3.126l-.953-2.738q-.442-1.26-.648-2.051a13.05,13.05,0,0,1-.5,1.889Z" transform="translate(-145.021 -9.566)" fill="#fff"/><path d="M42.37,100.38h6.073v2H46.406v6.1h-2v-6.1H42.37Z" transform="translate(-13.841 -63.076)" fill="#fff"/><path d="M79.58,100.38h2v8.094h-2Z" transform="translate(-44.37 -63.076)" fill="#fff"/><path d="M102.884,102.913l2.115.722a4.681,4.681,0,0,1-.672,1.677,2.989,2.989,0,0,1-1.138,1.016,3.834,3.834,0,0,1-1.729.343,4.549,4.549,0,0,1-2.081-.417,3.5,3.5,0,0,1-1.393-1.469,5.479,5.479,0,0,1-.585-2.692,4.932,4.932,0,0,1,1.031-3.36,3.676,3.676,0,0,1,2.918-1.174,3.622,3.622,0,0,1,2.32.673,4,4,0,0,1,1.255,2.067l-2.131.535a2.195,2.195,0,0,0-.235-.589,1.455,1.455,0,0,0-.5-.481,1.3,1.3,0,0,0-.655-.169,1.38,1.38,0,0,0-1.257.743,3.487,3.487,0,0,0-.33,1.735,3.617,3.617,0,0,0,.4,2.007,1.288,1.288,0,0,0,1.108.544,1.264,1.264,0,0,0,1.047-.438A2.857,2.857,0,0,0,102.884,102.913Z" transform="translate(-59.432 -60.762)" fill="#fff"/><path d="M146.27,100.38h2v3.058l2.092-3.058h2.657l-2.359,3.054,2.465,5.038h-2.46l-1.363-3.329-1.032,1.354v1.975h-2Z" transform="translate(-99.817 -63.076)" fill="#fff"/><path d="M186,100.38h5.354v1.727H188v1.286h3.11v1.65H188v1.6h3.449v1.833H186Z" transform="translate(-132.63 -63.076)" fill="#fff"/><path d="M217.722,100.38h6.073v2h-2.038v6.1h-2v-6.1H217.72v-2Z" transform="translate(-158.855 -63.076)" fill="#fff"/></g></g></svg>