<?xml version="1.0" encoding="utf-8"?>
<!-- Generator: Adobe Illustrator 16.0.0, SVG Export Plug-In . SVG Version: 6.00 Build 0)  -->
<!DOCTYPE svg PUBLIC "-//W3C//DTD SVG 1.1//EN" "http://www.w3.org/Graphics/SVG/1.1/DTD/svg11.dtd">
<svg version="1.1" id="Layer_1" xmlns="http://www.w3.org/2000/svg" xmlns:xlink="http://www.w3.org/1999/xlink" x="0px" y="0px"
	 width="24px" height="24px" viewBox="0 0 24 24" enable-background="new 0 0 24 24" xml:space="preserve">
<g>
	<g>
		<g>
			<path fill="#0956A6" d="M20.9,4.402l-3.349-3.35c-0.729-0.729-2.169-1.325-3.2-1.325H3.102c-1.031,0-1.875,0.844-1.875,1.875
				v20.25c0,1.03,0.844,1.875,1.875,1.875h17.25c1.031,0,1.875-0.845,1.875-1.875V7.603C22.227,6.571,21.63,5.131,20.9,4.402
				L20.9,4.402z M19.84,5.463c0.073,0.072,0.146,0.163,0.217,0.265h-3.83V1.896c0.102,0.07,0.191,0.145,0.265,0.218L19.84,5.463z
				 M20.727,21.853c0,0.203-0.172,0.375-0.375,0.375H3.102c-0.204,0-0.375-0.172-0.375-0.375V1.603c0-0.202,0.171-0.375,0.375-0.375
				h11.25c0.113,0,0.24,0.015,0.375,0.04v5.96h5.96c0.025,0.134,0.04,0.262,0.04,0.375V21.853z M20.727,21.853"/>
		</g>
		<path fill="#0956A6" d="M20.628,5.678c0.096,0.088,0.192,0.197,0.286,0.319h-5.039V1.369c0.133,0.086,0.252,0.174,0.349,0.264
			L20.628,5.678z"/>
	</g>
	
		<line fill="none" stroke="#0956A6" stroke-linecap="round" stroke-linejoin="round" stroke-miterlimit="10" x1="6" y1="10.5" x2="17" y2="10.5"/>
	
		<line fill="none" stroke="#0956A6" stroke-linecap="round" stroke-linejoin="round" stroke-miterlimit="10" x1="6" y1="13.5" x2="17" y2="13.5"/>
	
		<line fill="none" stroke="#0956A6" stroke-linecap="round" stroke-linejoin="round" stroke-miterlimit="10" x1="6" y1="17.5" x2="17" y2="17.5"/>
</g>
</svg>
