<svg xmlns="http://www.w3.org/2000/svg" xmlns:xlink="http://www.w3.org/1999/xlink" width="68" height="41.158" viewBox="0 0 68 41.158">
  <defs>
    <style>
      .cls-1 {
        clip-path: url(#clip-path);
      }

      .cls-2 {
        fill: #f79410;
      }

      .cls-3 {
        fill: #ff5f00;
      }

      .cls-4 {
        fill: #eb001b;
      }

      .cls-5 {
        fill: #f79e1b;
      }
    </style>
    <clipPath id="clip-path">
      <rect id="Rectángulo_1" data-name="Rectángulo 1" width="68" height="41.158"/>
    </clipPath>
  </defs>
  <g id="iPhone_X_XS_11_Pro_1" data-name="iPhone X/XS/11 Pro – 1" class="cls-1">
    <g id="mastercard_product" transform="translate(-0.004 0)">
      <g id="Grupo_4" data-name="Grupo 4" transform="translate(0 0)">
        <g id="Grupo_1" data-name="Grupo 1" transform="translate(64.21 32.524)">
          <path id="Trazado_1" data-name="Trazado 1" class="cls-2" d="M-3.473-1.6v-.8h-.208l-.242.548-.24-.548h-.209v.8h.149v-.6L-4-1.684h.154l.225-.521v.6Zm-1.321,0v-.662h.267V-2.4h-.68v.134h.267V-1.6Z" transform="translate(5.207 2.4)"/>
        </g>
        <path id="Trazado_2" data-name="Trazado 2" class="cls-3" d="M3361,2179.927h-18v-32.358h18.005Z" transform="translate(-3318.726 -2143.171)"/>
        <g id="Grupo_2" data-name="Grupo 2" transform="translate(0 0)">
          <path id="Trazado_3" data-name="Trazado 3" class="cls-4" d="M-50.957-41.23A20.545,20.545,0,0,1-43.1-57.409a20.49,20.49,0,0,0-12.718-4.4A20.579,20.579,0,0,0-76.394-41.23,20.579,20.579,0,0,0-55.815-20.651a20.49,20.49,0,0,0,12.718-4.4A20.545,20.545,0,0,1-50.957-41.23" transform="translate(76.394 61.809)"/>
        </g>
        <g id="Grupo_3" data-name="Grupo 3" transform="translate(33.279 0)">
          <path id="Trazado_4" data-name="Trazado 4" class="cls-5" d="M-66.716-41.23A20.579,20.579,0,0,1-87.295-20.651,20.5,20.5,0,0,1-100-25.051,20.541,20.541,0,0,0-92.139-41.23,20.541,20.541,0,0,0-100-57.409a20.5,20.5,0,0,1,12.718-4.4A20.579,20.579,0,0,1-66.7-41.23" transform="translate(100 61.809)"/>
        </g>
      </g>
    </g>
  </g>
</svg>
