<svg xmlns="http://www.w3.org/2000/svg" xmlns:xlink="http://www.w3.org/1999/xlink" width="25" height="15" viewBox="0 0 25 15">
  <defs>
    <clipPath id="clip-Mesa_de_trabajo_1">
      <rect width="25" height="15"/>
    </clipPath>
  </defs>
  <g id="Mesa_de_trabajo_1" data-name="Mesa de trabajo – 1" clip-path="url(#clip-Mesa_de_trabajo_1)">
    <g id="mastercard_card" transform="translate(1566.623 -1106.248)">
      <g id="Grupo_12" data-name="Grupo 12" transform="translate(-1565.623 1106.748)">
        <g id="Grupo_9" data-name="Grupo 9" transform="translate(21.84 11.065)">
          <path id="Trazado_9" data-name="Trazado 9" d="M-4.617-2.126V-2.4h-.071l-.082.186L-4.851-2.4h-.071v.271h.05v-.2l.077.177h.052l.077-.177v.205Zm-.449,0v-.225h.091V-2.4h-.231v.046h.091v.225Z" transform="translate(5.207 2.397)" fill="#f79410"/>
        </g>
        <path id="Trazado_10" data-name="Trazado 10" d="M3349.128,2158.578H3343v-11.007h6.125Z" transform="translate(-3334.745 -2146.074)" fill="#ff5f00"/>
        <g id="Grupo_10" data-name="Grupo 10" transform="translate(0 0)">
          <path id="Trazado_11" data-name="Trazado 11" d="M-67.74-54.809a6.988,6.988,0,0,1,2.673-5.5,6.969,6.969,0,0,0-4.326-1.5,7,7,0,0,0-7,7,7,7,0,0,0,7,7,6.969,6.969,0,0,0,4.326-1.5,6.988,6.988,0,0,1-2.673-5.5" transform="translate(76.392 61.809)" fill="#eb001b"/>
        </g>
        <g id="Grupo_11" data-name="Grupo 11" transform="translate(11.318 0)">
          <path id="Trazado_12" data-name="Trazado 12" d="M-88.676-54.809a7,7,0,0,1-7,7,6.972,6.972,0,0,1-4.326-1.5,6.987,6.987,0,0,0,2.674-5.5,6.987,6.987,0,0,0-2.674-5.5,6.971,6.971,0,0,1,4.326-1.5,7,7,0,0,1,7,7" transform="translate(100.001 61.809)" fill="#f79e1b"/>
        </g>
      </g>
    </g>
  </g>
</svg>
