<?xml version="1.0" encoding="UTF-8"?>
<svg width="36px" height="31px" viewBox="0 0 36 31" version="1.1" xmlns="http://www.w3.org/2000/svg" xmlns:xlink="http://www.w3.org/1999/xlink">
    <!-- Generator: Sketch 58 (84663) - https://sketch.com -->
    <title>danger</title>
    <desc>Created with Sketch.</desc>
    <g id="Private-CEO" stroke="none" stroke-width="1" fill="none" fill-rule="evenodd">
        <g id="7-Lotes-CEO" transform="translate(-1087.000000, -298.000000)">
            <g id="Warning" transform="translate(1074.000000, 282.000000)">
                <g id="danger" transform="translate(13.000000, 16.000000)">
                    <path d="M35.6831719,27.5918486 L19.888875,1.10462385 C19.4897109,0.435208716 18.7730156,0.0258807339 17.9999297,0.0258807339 C17.2269141,0.0258807339 16.5101484,0.435137615 16.1109844,1.10462385 L0.316828125,27.5918486 C-0.0939375,28.2807454 -0.106101562,29.14 0.285117188,29.8404151 C0.676335938,30.5409014 1.4101875,30.9740482 2.20570313,30.9740482 L33.7942266,30.9740482 C34.5897422,30.9740482 35.3235937,30.5408303 35.7148125,29.8404151 C36.1061016,29.1399289 36.0939375,28.2807454 35.6831719,27.5918486 Z" id="Path" fill="#00327C"></path>
                    <path d="M17.9999297,0.0259518349 C17.2269141,0.0259518349 16.5101484,0.435208716 16.1109844,1.10469495 L0.316828125,27.5918486 C-0.0939375,28.2807454 -0.106101562,29.14 0.285117188,29.8404151 C0.676335938,30.5409014 1.4101875,30.9740482 2.20570313,30.9740482 L17.9999297,30.9740482 L17.9999297,0.0259518349 L17.9999297,0.0259518349 Z" id="Path" fill="#00327C"></path>
                    <path d="M31.3119844,28.0700023 L4.71853125,28.0700023 C4.46603906,28.0700023 4.23260156,27.9342706 4.10554688,27.7136445 C3.97849219,27.4929472 3.97708594,27.2206307 4.10167969,26.9986537 L17.3833594,3.34373394 C17.5093594,3.11941055 17.7446953,2.98062156 17.9997891,2.98062156 C17.9998594,2.98062156 18,2.98062156 18.0000703,2.98062156 C18.2550234,2.98062156 18.4904297,3.11898394 18.6165,3.34316514 L31.9283437,26.9980138 C32.0532891,27.2200619 32.0520234,27.4925206 31.9250391,27.7133601 C31.7980547,27.9341995 31.5645469,28.0700023 31.3119844,28.0700023 Z M5.93690625,26.6355413 L30.0922734,26.6355413 L18.0009141,5.14934174 L5.93690625,26.6355413 Z" id="Shape" fill="#FFFFFF" fill-rule="nonzero"></path>
                    <path d="M18.0234141,26.6355413 L5.93690625,26.6355413 L18.0008438,5.14941284 L18.0001406,2.98076376 L17.9997891,2.98076376 C17.7446953,2.98076376 17.5092891,3.11948165 17.3833594,3.34387615 L4.10175,26.9985826 C3.97708594,27.2206307 3.9785625,27.4929472 4.10561719,27.7135734 C4.23267188,27.9342706 4.46610938,28.0699312 4.71860156,28.0699312 L18.0234141,28.0699312 L18.0234141,26.6354702 L18.0234141,26.6354702 L18.0234141,26.6355413 Z" id="Path" fill="#FFFFFF"></path>
                    <path d="M19.6427812,24.0948922 C19.6427812,24.9725619 18.9018984,25.7431537 18.0340312,25.7431537 C17.1026719,25.7431537 16.4040469,24.9725619 16.4040469,24.0948922 C16.4040469,23.1958922 17.1026016,22.4466307 18.0340312,22.4466307 C18.9018281,22.4466307 19.6427812,23.1958211 19.6427812,24.0948922 Z M19.2405937,20.0277775 C19.2405937,20.6913624 18.520875,20.9695803 18.0127969,20.9695803 C17.3354062,20.9695803 16.7639063,20.6912913 16.7639063,20.0277775 C16.7639063,17.4805161 16.4676094,13.8200986 16.4676094,11.2728372 C16.4676094,10.4380413 17.145,9.96706881 18.0128672,9.96706881 C18.8384062,9.96706881 19.5370312,10.4379702 19.5370312,11.2728372 C19.5368906,13.8200986 19.2405937,17.4805161 19.2405937,20.0277775 Z" id="Shape" fill="#FFFFFF" fill-rule="nonzero"></path>
                </g>
            </g>
        </g>
    </g>
</svg>