<svg xmlns="http://www.w3.org/2000/svg" width="150" height="150" viewBox="0 0 150 150"><defs><style>.a{fill:#012c71;}.b{fill:#95979e;font-size:12px;font-family:OpenSans-Bold, Open Sans;font-weight:700;}</style></defs><path class="a" d="M98.743-328.089c-33.162,3.174-58.778,26.719-66.187,59.822-1.462,6.55-1.562,22.169-.2,28.971,2.973,14.712,10.936,29.576,21.369,39.753a77.5,77.5,0,0,0,39.512,20.355c7.207,1.36,20.714,1.209,27.668-.252a69.2,69.2,0,0,0,18.9-6.6,74.983,74.983,0,0,0,40.873-55.272,100.053,100.053,0,0,0,0-23.933,75.422,75.422,0,0,0-60.226-61.872C115.36-328.124,103.329-328.492,98.743-328.089Zm4.118,16.945v4.651l6.955.085v-9.2l2.378.3a66.976,66.976,0,0,1,20.25,5.628,52.948,52.948,0,0,1,6.955,3.728l1.966,1.31a65.18,65.18,0,0,1,11.188,9.724c2.923,3.325,6.7,8.464,6.7,8.464s-1.61,1.008-2.97,1.764c-2.36,1.369-3.729,2.166-3.729,2.166s.556,1.115,2.218,3.829l3.276-1.864c2.621-1.461,3.558-1.965,3.558-1.965,2.469,3.829,6.672,19,6.672,23.883a69.45,69.45,0,0,1,.151,8.616c-.232,4.283-.3,3.628-.3,3.628a66.972,66.972,0,0,1-4.637,17.735,29.283,29.283,0,0,1-2.117,4.333c-.151,0-3.427-1.763-3.427-1.763l-3.175-1.814a33.463,33.463,0,0,0-2.117,3.728l6.3,3.867c0,1.008-5.245,7.571-8.873,11.148-3.94,4.112-9.995,7.879-10.735,8.465s-3.881,2.418-3.881,2.418l-3.377,1.562a64.737,64.737,0,0,1-19.857,5.341l-2.419.3v-9.12h-6.955v4.686l-.151,4.434-2.369-.3a72.414,72.414,0,0,1-13.607-2.973c-4.385-1.461-7.828-2.916-9.327-3.59A57.844,57.844,0,0,1,72-201.388a64.933,64.933,0,0,1-10.612-9.189,99.132,99.132,0,0,1-7.789-9.54s2.044-1.343,3.556-2.2,2.928-1.73,2.928-1.73-1.92-3.611-1.971-3.711-3.427,1.713-3.427,1.713l-3.27,1.8-1.769-3.661a61.7,61.7,0,0,1-4.586-15.267,70.349,70.349,0,0,1,0-20.2,62.321,62.321,0,0,1,4.788-15.67l1.512-3.325,3.326,1.864a17.8,17.8,0,0,0,3.427,1.663,24.923,24.923,0,0,0,1.92-3.779s-1.416-.806-2.979-1.713c-1.613-.907-3.153-1.848-3.254-1.9a17.2,17.2,0,0,1,1.792-2.838c3.276-4.988,11.188-12.647,16.48-16.073,0,0,1.465-.983,2.889-1.8s2.806-1.473,2.806-1.473c.822-.34,10.18-4.383,14.162-5.341,1.966-.453,5-1.076,6.818-1.277,2.457-.4,3.917-.521,4.118-.572C102.861-315.613,102.811-313.562,102.861-311.144Z" transform="translate(-31.394 328.249)"/><text class="b" transform="translate(37.286 37.843)"><tspan x="0" y="0">11am</tspan></text><text class="b" transform="translate(87.637 37.843)"><tspan x="0" y="0">1pm</tspan></text><text class="b" transform="translate(84.637 119.742)"><tspan x="0" y="0">5pm</tspan></text><text class="b" transform="translate(40.318 119.742)"><tspan x="0" y="0">7pm</tspan></text><g transform="translate(16 68.297)"><text class="b" transform="translate(91.934 10)"><tspan x="0" y="0">3pm</tspan></text><text class="b" transform="translate(0 10)"><tspan x="0" y="0">9am</tspan></text><circle class="a" cx="2.5" cy="2.5" r="2.5" transform="translate(56.467 4)"/></g></svg>