<?xml version="1.0" encoding="utf-8"?>
<!-- Generator: Adobe Illustrator 16.0.0, SVG Export Plug-In . SVG Version: 6.00 Build 0)  -->
<!DOCTYPE svg PUBLIC "-//W3C//DTD SVG 1.1//EN" "http://www.w3.org/Graphics/SVG/1.1/DTD/svg11.dtd">
<svg version="1.1" xmlns="http://www.w3.org/2000/svg" xmlns:xlink="http://www.w3.org/1999/xlink" x="0px" y="0px" width="24px"
	 height="24px" viewBox="0 0 24 24" enable-background="new 0 0 24 24" xml:space="preserve">
<g id="Capa_1">
	<g>
		<g>
			<path fill="#0956A6" d="M19.76,13.816c-0.32-0.315-1.029-0.482-2.108-0.496c-0.731-0.009-1.61,0.056-2.535,0.186
				c-0.415-0.24-0.841-0.5-1.176-0.812c-0.901-0.842-1.654-2.011-2.123-3.295c0.03-0.121,0.057-0.227,0.081-0.334
				c0,0,0.507-2.885,0.373-3.859c-0.019-0.133-0.03-0.172-0.066-0.275l-0.044-0.114c-0.138-0.317-0.409-0.655-0.833-0.638
				L11.079,4.17h-0.007c-0.474,0-0.859,0.242-0.96,0.604c-0.308,1.136,0.01,2.834,0.585,5.034l-0.147,0.357
				c-0.412,1.005-0.929,2.017-1.385,2.91l-0.059,0.116c-0.479,0.938-0.915,1.734-1.309,2.41L7.39,15.816
				c-0.03,0.016-0.728,0.385-0.891,0.484c-1.389,0.828-2.309,1.77-2.462,2.518c-0.049,0.238-0.012,0.543,0.235,0.684l0.394,0.199
				c0.171,0.086,0.351,0.129,0.536,0.129c0.989,0,2.138-1.232,3.719-3.994c1.827-0.594,3.906-1.088,5.729-1.361
				c1.389,0.783,3.097,1.326,4.175,1.326c0.191,0,0.357-0.018,0.491-0.055c0.207-0.055,0.381-0.172,0.487-0.332
				c0.209-0.314,0.252-0.748,0.195-1.193C19.98,14.09,19.875,13.928,19.76,13.816L19.76,13.816z M4.986,19.08
				c0.181-0.494,0.895-1.469,1.95-2.334c0.066-0.055,0.23-0.207,0.379-0.35C6.212,18.157,5.473,18.859,4.986,19.08L4.986,19.08z
				 M11.239,4.68c0.318,0,0.499,0.802,0.514,1.553c0.015,0.752-0.16,1.279-0.379,1.67c-0.18-0.578-0.268-1.488-0.268-2.084
				C11.106,5.818,11.093,4.68,11.239,4.68L11.239,4.68z M9.374,14.941c0.222-0.396,0.452-0.814,0.688-1.258
				c0.574-1.086,0.937-1.936,1.207-2.634c0.537,0.978,1.206,1.808,1.992,2.474c0.098,0.083,0.202,0.166,0.311,0.25
				C11.972,14.09,10.591,14.473,9.374,14.941L9.374,14.941z M19.453,14.852c-0.097,0.061-0.376,0.096-0.556,0.096
				c-0.579,0-1.295-0.265-2.299-0.695c0.386-0.029,0.74-0.043,1.057-0.043c0.581,0,0.753-0.003,1.321,0.143
				C19.543,14.496,19.551,14.79,19.453,14.852L19.453,14.852z M21.2,4.674l-3.349-3.348C17.123,0.596,15.682,0,14.651,0H3.401
				C2.37,0,1.526,0.844,1.526,1.875v20.25C1.526,23.156,2.37,24,3.401,24h17.25c1.031,0,1.875-0.844,1.875-1.875V7.875
				C22.526,6.844,21.929,5.403,21.2,4.674L21.2,4.674z M20.139,5.734C20.213,5.809,20.286,5.898,20.357,6h-3.831V2.169
				c0.102,0.071,0.192,0.144,0.265,0.218L20.139,5.734z M21.026,22.125c0,0.203-0.172,0.375-0.375,0.375H3.401
				c-0.203,0-0.375-0.172-0.375-0.375V1.875c0-0.203,0.171-0.375,0.375-0.375h11.25c0.113,0,0.24,0.014,0.375,0.04V7.5h5.96
				c0.026,0.135,0.04,0.262,0.04,0.375V22.125z M21.026,22.125"/>
		</g>
		<path fill="#0956A6" d="M20.927,5.949c0.096,0.089,0.193,0.197,0.286,0.32h-5.039V1.643c0.134,0.085,0.253,0.174,0.35,0.262
			L20.927,5.949z"/>
	</g>
</g>
<g id="Layer_1">
</g>
</svg>
