<?xml version="1.0" encoding="utf-8"?>
<!-- Generator: Adobe Illustrator 16.0.0, SVG Export Plug-In . SVG Version: 6.00 Build 0)  -->
<!DOCTYPE svg PUBLIC "-//W3C//DTD SVG 1.1//EN" "http://www.w3.org/Graphics/SVG/1.1/DTD/svg11.dtd">
<svg version="1.1" xmlns="http://www.w3.org/2000/svg" xmlns:xlink="http://www.w3.org/1999/xlink" x="0px" y="0px" width="24px"
	 height="24px" viewBox="0 0 24 24" enable-background="new 0 0 24 24" xml:space="preserve">
<g id="Capa_1">
	<g>
		<path fill="#0956A6" d="M15.085,5.226c0-2.889-2.324-5.235-5.197-5.235c-2.869,0-5.199,2.347-5.199,5.235s1.806,7.133,5.199,7.133
			C13.223,12.358,15.085,8.113,15.085,5.226z"/>
		<path fill="#0956A6" d="M16.52,23c-2.252,0-4.078-1.748-4.078-4c0-2.253,1.826-4,4.078-4h0.447c-0.863-1-2.02-1-3.553-1H6.377
			c-3.964,0-5.345,2.527-5.759,3.508c0,0.005-0.153,0.57-0.153,0.576c-0.132,0.441-0.23,1.521-0.23,1.692v0.992v0.987
			C0.234,22.849,1.128,24,2.221,24h15.334c0.452,0,0.863,0,1.195-1H16.52z"/>
		<path fill="#0956A6" d="M23.075,19.372c0,0.477-0.317,0.863-0.708,0.863h-6.33c-0.392,0-0.708-0.387-0.708-0.863l0,0
			c0-0.478,0.317-0.866,0.708-0.866h6.33C22.758,18.506,23.075,18.895,23.075,19.372L23.075,19.372z"/>
	</g>
</g>
<g id="Layer_1">
</g>
</svg>
