<svg xmlns="http://www.w3.org/2000/svg" width="150" height="150" viewBox="0 0 150 150"><defs><style>.a{fill:#95979e;}</style></defs><g transform="translate(-7067 6401)"><path class="a" d="M98.743-328.089c-33.162,3.174-58.778,26.719-66.187,59.822-1.462,6.55-1.562,22.169-.2,28.971,2.973,14.712,10.936,29.576,21.369,39.753a77.5,77.5,0,0,0,39.512,20.355c7.207,1.36,20.714,1.209,27.668-.252a69.2,69.2,0,0,0,18.9-6.6,74.983,74.983,0,0,0,40.873-55.272,100.053,100.053,0,0,0,0-23.933,75.422,75.422,0,0,0-60.226-61.872C115.36-328.124,103.329-328.492,98.743-328.089Zm4.118,16.945v4.651l6.955.085v-9.2l2.378.3a66.976,66.976,0,0,1,20.25,5.628,52.948,52.948,0,0,1,6.955,3.728l1.966,1.31a65.18,65.18,0,0,1,11.188,9.724c2.923,3.325,6.7,8.464,6.7,8.464s-1.61,1.008-2.97,1.764c-2.36,1.369-3.729,2.166-3.729,2.166s.556,1.115,2.218,3.829l3.276-1.864c2.621-1.461,3.558-1.965,3.558-1.965,2.469,3.829,6.672,19,6.672,23.883a69.45,69.45,0,0,1,.151,8.616c-.232,4.283-.3,3.628-.3,3.628a66.972,66.972,0,0,1-4.637,17.735,29.283,29.283,0,0,1-2.117,4.333c-.151,0-3.427-1.763-3.427-1.763l-3.175-1.814a33.463,33.463,0,0,0-2.117,3.728l6.3,3.867c0,1.008-5.245,7.571-8.873,11.148-3.94,4.112-9.995,7.879-10.735,8.465s-3.881,2.418-3.881,2.418l-3.377,1.562a64.737,64.737,0,0,1-19.857,5.341l-2.419.3v-9.12h-6.955v4.686l-.151,4.434-2.369-.3a72.414,72.414,0,0,1-13.607-2.973c-4.385-1.461-7.828-2.916-9.327-3.59A57.844,57.844,0,0,1,72-201.388a64.933,64.933,0,0,1-10.612-9.189,99.132,99.132,0,0,1-7.789-9.54s2.044-1.343,3.556-2.2,2.928-1.73,2.928-1.73-1.92-3.611-1.971-3.711-3.427,1.713-3.427,1.713l-3.27,1.8-1.769-3.661a61.7,61.7,0,0,1-4.586-15.267,70.349,70.349,0,0,1,0-20.2,62.321,62.321,0,0,1,4.788-15.67l1.512-3.325,3.326,1.864a17.8,17.8,0,0,0,3.427,1.663,24.923,24.923,0,0,0,1.92-3.779s-1.416-.806-2.979-1.713c-1.613-.907-3.153-1.848-3.254-1.9a17.2,17.2,0,0,1,1.792-2.838c3.276-4.988,11.188-12.647,16.48-16.073,0,0,1.465-.983,2.889-1.8s2.806-1.473,2.806-1.473c.822-.34,10.18-4.383,14.162-5.341,1.966-.453,5-1.076,6.818-1.277,2.457-.4,3.917-.521,4.118-.572C102.861-315.613,102.811-313.562,102.861-311.144Z" transform="translate(7035.606 -6072.751)"/><circle class="a" cx="2.5" cy="2.5" r="2.5" transform="translate(7140 -6328)"/><g transform="translate(203 -8)"><g transform="translate(-121 221)"><path class="a" d="M9.478-572.623c-.022.21-.094,1.087-.152,1.943s-.123,1.725-.145,1.921l-.043.37.42.2c.355.167.457.188.66.13,1.116-.333,2.406-.051,2.74.587a1.9,1.9,0,0,1-.007,1.384c-.384.812-1.732.979-3.341.421L9-565.883v1.624l.457.159a6.141,6.141,0,0,0,2.964.2,2.829,2.829,0,0,0,2.544-2.558,2.832,2.832,0,0,0-.819-2.58,2.525,2.525,0,0,0-1.957-.66,5.734,5.734,0,0,0-.971.051l-.21.058.051-.747c.087-1.2-.13-1.073,1.718-1.073h1.587V-573H9.515Z" transform="translate(7061 -5927.904)"/><path class="a" d="M117.153-544.657a2.209,2.209,0,0,0-1.015.623,1.394,1.394,0,0,1-.333.3,1.674,1.674,0,0,1-.174-.471l-.123-.471H114v10h1.906l-.036-1.761c-.022-.964-.065-1.812-.094-1.884-.08-.189.1-.152.261.058a2.532,2.532,0,0,0,.631.413,1.816,1.816,0,0,0,1.1.239,1.95,1.95,0,0,0,1.029-.2c1.073-.5,1.609-1.624,1.609-3.392,0-1.689-.515-2.812-1.515-3.3A2.793,2.793,0,0,0,117.153-544.657Zm.87,1.718c.384.37.493.826.457,1.914a2.355,2.355,0,0,1-.2,1.232.971.971,0,0,1-1.08.66.954.954,0,0,1-.747-.2c-.428-.326-.529-.7-.529-1.943,0-.986.014-1.073.181-1.37a1.078,1.078,0,0,1,1.174-.573C117.718-543.193,117.791-543.164,118.023-542.939Z" transform="translate(6963.611 -5954.124)"/><path class="a" d="M227.914-544.6a1.984,1.984,0,0,0-.833.515c-.2.2-.391.333-.42.3a1.953,1.953,0,0,1-.152-.457l-.1-.4-.7-.022-.7-.022v6.965h1.812v-1.761c0-1.942.072-2.609.312-3.095a1.061,1.061,0,0,1,1.073-.652.754.754,0,0,1,.667.217c.377.333.413.58.413,3.073v2.218h1.877l.022-2.232c.022-2.16.029-2.232.188-2.566a1.107,1.107,0,0,1,1.029-.7.881.881,0,0,1,1.036.551c.152.319.159.464.181,2.638l.029,2.3h1.8l-.022-2.74c-.022-2.674-.022-2.74-.188-3.095a1.809,1.809,0,0,0-1.522-1.123,2.715,2.715,0,0,0-2.45.681.975.975,0,0,1-.268.261,1.983,1.983,0,0,1-.4-.348,2.176,2.176,0,0,0-1.645-.638A2.481,2.481,0,0,0,227.914-544.6Z" transform="translate(6860.656 -5954.132)"/></g><g transform="translate(-442 160)"><path class="a" d="M860.167-505.791A2.8,2.8,0,0,0,858-502.848a2.61,2.61,0,0,0,1.391,2.544,1.988,1.988,0,0,0,1.056.182,1.916,1.916,0,0,0,1.7-.685l.336-.363-.049.419a2.273,2.273,0,0,1-1.761,2.272,6.341,6.341,0,0,1-1.81.042l-.231-.056v1.461l.322.049a5.917,5.917,0,0,0,3.034-.426c1.2-.58,1.866-1.7,2.09-3.516.336-2.677-.566-4.495-2.426-4.886A3.537,3.537,0,0,0,860.167-505.791Zm1.279,1.468a1.767,1.767,0,0,1,.811,1.978,1.5,1.5,0,0,1-1.265.86,1.118,1.118,0,0,1-1.021-.552,1.279,1.279,0,0,1-.182-.881c.007-.769.273-1.258.8-1.454A1.522,1.522,0,0,1,861.446-504.323Z" transform="translate(6464.513 -5975.061)"/><path class="a" d="M962.548-477.519a5.927,5.927,0,0,0-1.454.489c0,.007.126.287.273.615l.28.594.58-.2c1.069-.363,1.859-.336,2.174.091a1.26,1.26,0,0,1,.175.566l.028.384-.86.042c-1.873.1-2.677.412-3.09,1.181a1.851,1.851,0,0,0-.154,1.028,1.7,1.7,0,0,0,.21,1.118,2.069,2.069,0,0,0,2.132.951,2.247,2.247,0,0,0,1.531-.643l.406-.37.168.433.175.433.65.021.643.021-.028-2.537a21.656,21.656,0,0,0-.1-2.789,2.178,2.178,0,0,0-1.44-1.363A6.23,6.23,0,0,0,962.548-477.519Zm2.041,4.068a1.389,1.389,0,0,1-.58,1.265,1.126,1.126,0,0,1-.8.189c-.461,0-.524-.014-.7-.2-.168-.161-.2-.252-.2-.566,0-.79.545-1.125,1.873-1.153l.4-.007Z" transform="translate(6369.178 -6001.368)"/><path class="a" d="M1074.81-476.6a1.912,1.912,0,0,0-.8.5c-.2.189-.377.322-.405.294a1.883,1.883,0,0,1-.147-.44l-.1-.384-.678-.021-.678-.021v6.717h1.747v-1.7a7.231,7.231,0,0,1,.3-2.985,1.023,1.023,0,0,1,1.034-.629.727.727,0,0,1,.643.21c.363.322.4.559.4,2.964v2.139h1.81l.021-2.153c.021-2.083.028-2.153.182-2.474a1.068,1.068,0,0,1,.993-.671.85.85,0,0,1,1,.531c.147.308.154.447.175,2.544l.028,2.223h1.741l-.021-2.642c-.021-2.579-.021-2.642-.182-2.985a1.745,1.745,0,0,0-1.468-1.083,2.618,2.618,0,0,0-2.363.657.94.94,0,0,1-.259.252,1.908,1.908,0,0,1-.385-.336,2.1,2.1,0,0,0-1.587-.615A2.393,2.393,0,0,0,1074.81-476.6Z" transform="translate(6265.472 -6002.181)"/></g><g transform="translate(-201 132)"><path class="a" d="M130-271.258v.742h2.057a17.185,17.185,0,0,1,2.057.061c0,.034-.695,1.585-1.552,3.454l-1.545,3.4.884.02a5.079,5.079,0,0,0,.938-.034c.027-.027.749-1.659,1.606-3.629L136-270.819V-272h-6Z" transform="translate(6975.988 -6139.379)"/><path class="a" d="M242.015-243.6A1.963,1.963,0,0,0,241-243c-.25.277-.384.344-.384.2a3.089,3.089,0,0,0-.108-.438l-.1-.364H239v9.309h1.774l-.034-1.754c-.014-.965-.007-1.754.013-1.754a1.2,1.2,0,0,1,.263.229,2.279,2.279,0,0,0,2.118.486c1.127-.3,1.767-1.336,1.848-2.975a4.947,4.947,0,0,0-.344-2.226,2.558,2.558,0,0,0-1.127-1.181A3.006,3.006,0,0,0,242.015-243.6Zm.533,1.457c.6.283.87,1.646.56,2.826a1.125,1.125,0,0,1-1.68.756.924.924,0,0,1-.472-.486c-.155-.31-.169-.4-.169-1.315,0-.877.013-1.012.148-1.282a1.053,1.053,0,0,1,1.019-.607A1.666,1.666,0,0,1,242.548-242.14Z" transform="translate(6874.341 -6165.826)"/><path class="a" d="M352.712-243.606a1.845,1.845,0,0,0-.776.479c-.189.182-.364.31-.391.283a1.815,1.815,0,0,1-.142-.425l-.094-.371-.654-.02-.654-.02v6.483h1.686v-1.639a6.979,6.979,0,0,1,.29-2.88.987.987,0,0,1,1-.607.7.7,0,0,1,.621.2c.351.31.385.54.385,2.86v2.064h1.747l.02-2.078c.02-2.01.027-2.078.175-2.388a1.03,1.03,0,0,1,.958-.648.82.82,0,0,1,.965.513c.142.3.148.432.169,2.455l.027,2.145h1.68l-.02-2.55c-.02-2.489-.02-2.55-.175-2.88a1.684,1.684,0,0,0-1.417-1.046,2.527,2.527,0,0,0-2.28.634.906.906,0,0,1-.25.243,1.845,1.845,0,0,1-.371-.324,2.026,2.026,0,0,0-1.531-.594A2.309,2.309,0,0,0,352.712-243.606Z" transform="translate(6770.829 -6165.75)"/></g><g transform="translate(-297 62)"><path class="a" d="M679.817-178.754a4.722,4.722,0,0,0-1.515.555l-.295.178.411.61a2.658,2.658,0,0,0,.459.6c.027-.014.213-.11.4-.213a2.132,2.132,0,0,1,2.359-.055,1.07,1.07,0,0,1-.027,1.426c-.281.3-.782.432-1.673.432H679.3v1.351l.843.041c.96.041,1.406.171,1.652.466a1.144,1.144,0,0,1-.384,1.714,4.219,4.219,0,0,1-2.914-.144l-.5-.192v.747c0,.665.014.747.13.816a7.285,7.285,0,0,0,2.029.384c1.721.089,3.01-.452,3.51-1.467a1.855,1.855,0,0,0,.192-1.076c0-.631-.014-.713-.192-1.015a2.386,2.386,0,0,0-1.659-.974c-.192-.041-.192-.048.185-.2a2.03,2.03,0,0,0,1.447-1.988,1.638,1.638,0,0,0-.487-1.3A3.849,3.849,0,0,0,679.817-178.754Z" transform="translate(6590.977 -6204.827)"/><path class="a" d="M787.982-148.661a2.09,2.09,0,0,0-.96.59,1.319,1.319,0,0,1-.315.281,1.585,1.585,0,0,1-.165-.446l-.117-.446H785v9.462h1.8l-.034-1.666c-.021-.912-.062-1.714-.089-1.783-.075-.178.1-.144.247.055a2.393,2.393,0,0,0,.6.391,1.718,1.718,0,0,0,1.042.226,1.845,1.845,0,0,0,.974-.185c1.015-.473,1.522-1.536,1.522-3.209,0-1.6-.487-2.66-1.433-3.12A2.642,2.642,0,0,0,787.982-148.661Zm.823,1.625c.363.35.466.782.432,1.81a2.228,2.228,0,0,1-.192,1.166.918.918,0,0,1-1.022.624.9.9,0,0,1-.706-.185c-.4-.309-.5-.665-.5-1.837,0-.932.014-1.015.171-1.3a1.02,1.02,0,0,1,1.111-.542C788.517-147.276,788.586-147.249,788.805-147.036Z" transform="translate(6491.313 -6232.876)"/><path class="a" d="M898.756-148.6a1.876,1.876,0,0,0-.788.487c-.192.185-.37.315-.4.288a1.844,1.844,0,0,1-.144-.432l-.1-.377-.665-.021-.665-.021v6.589h1.714v-1.666a7.094,7.094,0,0,1,.295-2.928,1,1,0,0,1,1.015-.617.713.713,0,0,1,.631.206c.357.315.391.548.391,2.907v2.1h1.776l.021-2.112c.021-2.043.027-2.112.178-2.427a1.047,1.047,0,0,1,.974-.658.833.833,0,0,1,.98.521c.144.3.151.439.171,2.5l.027,2.18h1.707l-.021-2.592c-.021-2.53-.021-2.592-.178-2.928a1.711,1.711,0,0,0-1.44-1.063,2.568,2.568,0,0,0-2.317.644.922.922,0,0,1-.254.247,1.874,1.874,0,0,1-.377-.329,2.059,2.059,0,0,0-1.556-.6A2.347,2.347,0,0,0,898.756-148.6Z" transform="translate(6387.923 -6232.886)"/></g><g transform="translate(-208 249)"><path class="a" d="M393.632-689.864c-.779.619-1.428,1.158-1.442,1.195a4.591,4.591,0,0,0,.859,1.093,8.3,8.3,0,0,0,1.3-1.049l.379-.364v7.094h1.894V-691h-1.566Z" transform="translate(6724.413 -5920)"/><path class="a" d="M491.065-663.886a5.149,5.149,0,0,0-1.784.6,6.748,6.748,0,0,0,.269.648c.2.473.291.59.379.554a6.928,6.928,0,0,1,1.683-.437c.779-.065,1.187.248,1.275.961l.051.379-.976.051c-1.61.08-2.4.328-2.913.9a1.8,1.8,0,0,0-.452,1.435,1.946,1.946,0,0,0,1.9,2.127,3.683,3.683,0,0,0,1.588-.248,3.538,3.538,0,0,0,.6-.481c.379-.364.379-.364.452-.189.036.095.124.313.189.481l.124.313h1.3l-.022-2.717c-.022-2.651-.022-2.717-.189-3.074a1.931,1.931,0,0,0-1.042-1.02A4.8,4.8,0,0,0,491.065-663.886Zm1.828,4.312a3.4,3.4,0,0,1-.124.714,1.42,1.42,0,0,1-1.326.823c-.626,0-.918-.262-.925-.838,0-.823.568-1.165,2-1.194l.43-.007Z" transform="translate(6634.029 -5945.097)"/><path class="a" d="M603.183-662.535a2.33,2.33,0,0,0-1.107.648,1.4,1.4,0,0,1-.335.3c-.029,0-.073-.087-.095-.2s-.087-.321-.124-.473l-.073-.27H600v6.992h1.879l.029-2.171a9.182,9.182,0,0,1,.16-2.491,1.2,1.2,0,0,1,1.253-.874.669.669,0,0,1,.648.24c.357.357.4.706.4,3.147v2.149h1.887l.022-2.243c.022-2.1.029-2.258.175-2.571a1.139,1.139,0,0,1,1.027-.706.9.9,0,0,1,.983.415c.168.255.168.313.189,2.68l.022,2.425h1.886v-2.578c0-2.4-.007-2.608-.153-3.066a1.97,1.97,0,0,0-2.178-1.384,2.233,2.233,0,0,0-1.77.626,2,2,0,0,1-.444.357c-.044,0-.153-.116-.24-.248a2.216,2.216,0,0,0-1.7-.736A4.471,4.471,0,0,0,603.183-662.535Z" transform="translate(6530.738 -5946.353)"/><path class="a" d="M393.632-689.864c-.779.619-1.428,1.158-1.442,1.195a4.591,4.591,0,0,0,.859,1.093,8.3,8.3,0,0,0,1.3-1.049l.379-.364v7.094h1.894V-691h-1.566Z" transform="translate(6717.78 -5920)"/></g><g transform="translate(-119 133)"><path class="a" d="M117.056-544.659a2.141,2.141,0,0,0-.984.6,1.351,1.351,0,0,1-.323.288,1.623,1.623,0,0,1-.169-.457l-.119-.457H114v9.7h1.848l-.035-1.707c-.021-.934-.063-1.756-.091-1.827-.077-.183.1-.148.253.056a2.451,2.451,0,0,0,.611.4,1.76,1.76,0,0,0,1.068.232,1.891,1.891,0,0,0,1-.19c1.04-.485,1.56-1.574,1.56-3.288,0-1.637-.5-2.726-1.468-3.2A2.707,2.707,0,0,0,117.056-544.659Zm.843,1.665c.372.358.478.8.443,1.855a2.283,2.283,0,0,1-.2,1.194.941.941,0,0,1-1.047.639.925.925,0,0,1-.724-.19c-.414-.316-.513-.681-.513-1.883,0-.955.014-1.04.176-1.328a1.045,1.045,0,0,1,1.138-.555C117.6-543.24,117.674-543.212,117.9-542.994Z" transform="translate(6964.881 -5947.765)"/><path class="a" d="M227.824-544.6a1.923,1.923,0,0,0-.808.5c-.2.19-.379.323-.407.3a1.89,1.89,0,0,1-.148-.443l-.1-.386-.681-.021-.681-.021v6.751h1.756v-1.707a7.268,7.268,0,0,1,.3-3,1.028,1.028,0,0,1,1.04-.632.731.731,0,0,1,.646.211c.365.323.4.562.4,2.979v2.15h1.82l.021-2.164c.021-2.094.028-2.164.183-2.487a1.073,1.073,0,0,1,1-.674.854.854,0,0,1,1,.534c.148.309.155.45.176,2.557l.028,2.234h1.749l-.021-2.656c-.021-2.592-.021-2.656-.183-3a1.753,1.753,0,0,0-1.475-1.089,2.631,2.631,0,0,0-2.375.66.944.944,0,0,1-.26.253,1.923,1.923,0,0,1-.386-.337,2.109,2.109,0,0,0-1.595-.618A2.4,2.4,0,0,0,227.824-544.6Z" transform="translate(6861.679 -5947.774)"/><path class="a" d="M393.581-689.9c-.752.6-1.377,1.117-1.391,1.152a4.427,4.427,0,0,0,.829,1.054,8.006,8.006,0,0,0,1.251-1.012l.365-.351v6.843h1.827V-691h-1.51Z" transform="translate(6678.78 -5803.379)"/></g></g></g></svg>