<svg id="Private-CEO" xmlns="http://www.w3.org/2000/svg" width="240" height="33.168" viewBox="0 0 240 33.168">
  <defs>
    <style>
      .cls-1 {
        fill: #fff;
        fill-rule: evenodd;
      }
    </style>
  </defs>
  <g id="_2-Loading-in-Empresas" data-name="2-Loading-in-Empresas" transform="translate(0 0)">
    <g id="Footer">
      <g id="Engine" transform="translate(0 0)">
        <path id="Lettering" class="cls-1" d="M221.015,32.111H218.8V18.6H214V16.6h11.851V18.6h-4.833Zm-12.853,0H206.1l-.044-.064-8.577-11.727V32.111h-2.212V16.6h2.176l.05.066,8.464,11.48V16.6h2.209Zm-19.692,0h-10.28V16.6h10.28V18.6H180.4v4.582h7.909v2H180.4v4.921h8.069Zm-17.618,0h-2.211V20.249l-4.911,11.863h-.987l-.039-.1L157.862,20.25V32.111h-2.215V16.6h2.981l.042.1,4.567,11.083L167.875,16.6h2.978Zm-25.574,0h-2.211V25.579L136.934,16.6h2.6l4.627,6.937L148.8,16.6h2.6l-6.114,8.981Zm-20.5-5.375h5.983l-2.981-7.586Zm10.53,5.374H132.8l-1.348-3.369H124.1l-1.344,3.369h-2.51L126.484,16.6h2.562Zm-26.921-8.04h3.828a2.738,2.738,0,1,0,0-5.469h-3.828Zm0,8.039H106.17V16.6h6.269a4.625,4.625,0,0,1,4.921,4.741,4.623,4.623,0,0,1-4.921,4.738h-4.054ZM92.158,18.352c-3.245,0-5.424,2.419-5.424,6.014,0,3.541,2.229,6.016,5.424,6.016s5.424-2.475,5.424-6.016-2.232-6.014-5.424-6.014m0,14.034c-4.465,0-7.705-3.372-7.705-8.02s3.24-8.02,7.705-8.02,7.7,3.376,7.7,8.02-3.24,8.02-7.7,8.02m-17.194-.274H72.4l-.039-.1L66.166,16.6h2.508l.041.1,4.977,12.744L78.712,16.6h2.511ZM55.186,18.352c-3.245,0-5.425,2.419-5.425,6.014,0,3.541,2.232,6.016,5.425,6.016s5.422-2.475,5.422-6.016-2.229-6.014-5.422-6.014m0,14.034c-4.463,0-7.7-3.372-7.7-8.02s3.237-8.02,7.7-8.02,7.7,3.376,7.7,8.02-3.242,8.02-7.7,8.02M41.67,32.111H39.608l-.049-.064L30.983,20.321V32.111H28.772V16.6h2.177l.048.066,8.464,11.48V16.6H41.67ZM87.85,11.017a1.04,1.04,0,0,0,.523-.117.814.814,0,0,0,.326-.4l.3-.677L86.557,3.805h1.379L89.672,8.26l1.736-4.455H92.8L89.931,10.82a2.032,2.032,0,0,1-.8,1.028,2.469,2.469,0,0,1-1.244.314,3.367,3.367,0,0,1-.375-.025,2.422,2.422,0,0,1-.351-.062l.2-1.157A1.2,1.2,0,0,0,87.85,11.017ZM82.2,8.525a1.888,1.888,0,0,0,.88.228A1.522,1.522,0,0,0,84.309,8.2a2.13,2.13,0,0,0,.462-1.422,2.154,2.154,0,0,0-.462-1.428A1.515,1.515,0,0,0,83.084,4.8a1.814,1.814,0,0,0-.874.234,1.739,1.739,0,0,0-.653.578V7.965A1.624,1.624,0,0,0,82.2,8.525ZM80.265,1.54h1.293V4.63a2.364,2.364,0,0,1,.843-.72,2.326,2.326,0,0,1,1.065-.252,2.472,2.472,0,0,1,1.36.382,2.571,2.571,0,0,1,.936,1.089A3.8,3.8,0,0,1,86.1,6.783a3.787,3.787,0,0,1-.339,1.662,2.536,2.536,0,0,1-.936,1.077,2.5,2.5,0,0,1-1.36.375A2.326,2.326,0,0,1,82.4,9.645a2.413,2.413,0,0,1-.843-.708V9.75H80.265ZM74.134,5.6a1.692,1.692,0,0,0-.653-.572A1.875,1.875,0,0,0,72.6,4.8a1.5,1.5,0,0,0-1.219.554,2.174,2.174,0,0,0-.455,1.428A2.149,2.149,0,0,0,71.376,8.2a1.5,1.5,0,0,0,1.219.548,1.917,1.917,0,0,0,.886-.222,1.647,1.647,0,0,0,.653-.566Zm0,3.335a2.412,2.412,0,0,1-.843.708,2.325,2.325,0,0,1-1.065.252,2.472,2.472,0,0,1-2.308-1.452,3.787,3.787,0,0,1-.339-1.662,3.8,3.8,0,0,1,.339-1.655,2.557,2.557,0,0,1,.942-1.089,2.5,2.5,0,0,1,1.367-.382,2.3,2.3,0,0,1,1.052.252,2.474,2.474,0,0,1,.856.72V1.54h1.293V9.75H74.134ZM53.411,5.19a1.806,1.806,0,0,0-.48,1.1h3.349a1.752,1.752,0,0,0-.2-.745,1.511,1.511,0,0,0-.554-.6,1.694,1.694,0,0,0-.923-.234A1.532,1.532,0,0,0,53.411,5.19ZM51.977,5.2A2.944,2.944,0,0,1,54.6,3.657a2.827,2.827,0,0,1,1.539.418,2.8,2.8,0,0,1,1.028,1.151,3.7,3.7,0,0,1,.363,1.668V7.2H52.943a1.8,1.8,0,0,0,.579,1.169,1.861,1.861,0,0,0,1.317.468,2.608,2.608,0,0,0,.917-.172,2.119,2.119,0,0,0,.77-.48l.591.849a2.981,2.981,0,0,1-1.071.64A4,4,0,0,1,54.7,9.9a3.264,3.264,0,0,1-1.594-.388A2.82,2.82,0,0,1,52,8.408a3.25,3.25,0,0,1-.406-1.637A3.21,3.21,0,0,1,51.977,5.2Zm6.84-1.4h1.293v.874a2.75,2.75,0,0,1,.862-.726,2.2,2.2,0,0,1,1.071-.283V4.95a1.961,1.961,0,0,0-.406-.037,1.892,1.892,0,0,0-.868.24,1.673,1.673,0,0,0-.659.548V9.75H58.817ZM64.543,5.19a1.806,1.806,0,0,0-.48,1.1h3.349a1.752,1.752,0,0,0-.2-.745,1.512,1.512,0,0,0-.554-.6,1.7,1.7,0,0,0-.923-.234A1.532,1.532,0,0,0,64.543,5.19ZM63.108,5.2a2.945,2.945,0,0,1,2.628-1.545,2.827,2.827,0,0,1,1.539.418A2.8,2.8,0,0,1,68.3,5.227a3.7,3.7,0,0,1,.363,1.668V7.2H64.075a1.8,1.8,0,0,0,.579,1.169,1.861,1.861,0,0,0,1.317.468,2.608,2.608,0,0,0,.917-.172,2.118,2.118,0,0,0,.77-.48l.591.849a2.982,2.982,0,0,1-1.071.64,4,4,0,0,1-1.342.222,3.264,3.264,0,0,1-1.594-.388,2.819,2.819,0,0,1-1.114-1.1,3.25,3.25,0,0,1-.406-1.637A3.21,3.21,0,0,1,63.108,5.2Zm-16.63.191L45.1,9.75H43.745L41.9,3.805h1.342L44.5,8.125l1.416-4.32h1.133l1.416,4.32,1.256-4.32h1.342L49.211,9.75H47.857ZM39.564,8.18a2.172,2.172,0,0,0,.462-1.409,2.153,2.153,0,0,0-.462-1.4,1.664,1.664,0,0,0-2.511,0,2.154,2.154,0,0,0-.462,1.4,2.173,2.173,0,0,0,.462,1.409,1.664,1.664,0,0,0,2.511,0ZM36.7,9.479a2.843,2.843,0,0,1-1.071-1.132,3.331,3.331,0,0,1-.375-1.575,3.306,3.306,0,0,1,.375-1.563A2.843,2.843,0,0,1,36.7,4.076a3.317,3.317,0,0,1,3.225,0A2.854,2.854,0,0,1,40.993,5.2a3.3,3.3,0,0,1,.376,1.569,3.331,3.331,0,0,1-.376,1.575,2.843,2.843,0,0,1-1.071,1.132,3.317,3.317,0,0,1-3.225,0ZM32.754,3.165a1.446,1.446,0,0,0-1.01-.357h-1.97V5.417h1.97a1.446,1.446,0,0,0,1.01-.357,1.217,1.217,0,0,0,.394-.948A1.217,1.217,0,0,0,32.754,3.165ZM28.335,1.54h3.607a2.857,2.857,0,0,1,1.44.345,2.353,2.353,0,0,1,.923.935,2.669,2.669,0,0,1,.32,1.292,2.669,2.669,0,0,1-.32,1.292,2.343,2.343,0,0,1-.929.935,2.866,2.866,0,0,1-1.434.345H29.775V9.75h-1.44Z" transform="translate(14.152 0.773)"/>
        <path id="Emblem" class="cls-1" d="M0,13.117H33.344V7.037H0ZM0,.668V5.03H33.347V.668A.644.644,0,0,0,32.728,0H.619A.644.644,0,0,0,0,.668m0,21.81H33.344V15.121H0Zm0,2.008V32.5a.644.644,0,0,0,.619.666H32.728a.645.645,0,0,0,.619-.666V24.485Z" transform="translate(0 0)"/>
      </g>
    </g>
  </g>
</svg>
