<svg xmlns="http://www.w3.org/2000/svg" width="33" height="19.719" viewBox="0 0 33 19.719"><defs><style>.a{fill:#003d86;}.b{fill:#fff;}.c{fill:#65a735;}</style></defs><g transform="translate(-6179 -1599.489)"><path class="a" d="M32.767,5.888H0V10.17a2.563,2.563,0,0,0,2.564,2.41H30.357a2.411,2.411,0,0,0,2.41-2.41Z" transform="translate(6179 1606.395)"/><path class="b" d="M30.357,12.951H2.564A2.565,2.565,0,0,1,0,10.387V5.8H33v4.513a2.564,2.564,0,0,1-2.484,2.641c-.051,0-.105,0-.156,0M.308,6.26v4.051A2.2,2.2,0,0,0,2.538,12.49H30.357a2.2,2.2,0,0,0,2.205-2.179V6.26Z" transform="translate(6179 1606.254)"/><path class="c" d="M30.357.961a2.383,2.383,0,0,1,2.41,2.359V13.627H0V3.371A2.411,2.411,0,0,1,2.4.956c.054,0,.105,0,.159.005Z" transform="translate(6179 1598.682)"/><path class="b" d="M33,13.923H0V3.462A2.565,2.565,0,0,1,2.564.9H30.357a2.565,2.565,0,0,1,2.564,2.564ZM.308,13.461H32.562v-10a2.179,2.179,0,0,0-2.179-2.179H2.564A2.2,2.2,0,0,0,.359,3.462Z" transform="translate(6179 1598.591)"/><path class="b" d="M2.257,2.586V3.637h-.9v.769h.9v3.1A2.205,2.205,0,0,0,2.642,9a1.562,1.562,0,0,0,1.128.436,2.552,2.552,0,0,0,.9-.154V8.508H4.052c-.564,0-.769-.385-.769-1.1v-3H4.77V3.637H3.257V2.278Z" transform="translate(6181.127 1600.749)"/><path class="b" d="M3.909,5.106A1.717,1.717,0,0,1,5.5,3.439,1.462,1.462,0,0,1,6.95,4.911a1.62,1.62,0,0,1-.015.195Zm3.974.744a2.21,2.21,0,0,0,0-.487,2.382,2.382,0,0,0-2.2-2.556Q5.606,2.8,5.525,2.8A2.743,2.743,0,0,0,2.948,5.7c0,.051.008.1.013.151A2.565,2.565,0,0,0,5.307,8.613a2.6,2.6,0,0,0,.346.005,4.811,4.811,0,0,0,1.9-.359l-.179-.744a4.012,4.012,0,0,1-1.59.282A1.8,1.8,0,0,1,3.856,6.144a1.887,1.887,0,0,1,0-.295Z" transform="translate(6183.603 1601.563)"/><path class="b" d="M6.356,6.793a2.193,2.193,0,0,1,0-.41A1.641,1.641,0,0,1,7.92,5.1c1.1,0,1.692.974,1.692,2.128S8.971,9.409,7.894,9.409A1.616,1.616,0,0,1,6.33,8.2a1.68,1.68,0,0,1,0-.359ZM5.33,8.639V10.1h.9V9.178a2.029,2.029,0,0,0,1.9,1.051,2.718,2.718,0,0,0,2.582-2.849c0-.067-.01-.136-.018-.2A2.564,2.564,0,0,0,8.455,4.322q-.088-.012-.177-.015A2.077,2.077,0,0,0,6.356,5.332V1.768H5.33Z" transform="translate(6187.336 1599.952)"/><path class="b" d="M12,7.582a2.867,2.867,0,0,1-1.256.256A1.948,1.948,0,0,1,8.759,5.923a1.49,1.49,0,0,1,.008-.213,1.976,1.976,0,0,1,1.815-2.123c.062-.005.123-.005.185-.005a2.578,2.578,0,0,1,1.205.256l.231-.795a3.676,3.676,0,0,0-1.436-.282A2.872,2.872,0,0,0,7.718,5.446a2.589,2.589,0,0,0,0,.315,2.717,2.717,0,0,0,2.5,2.918,2.632,2.632,0,0,0,.318.005,3.886,3.886,0,0,0,1.641-.333Z" transform="translate(6191.053 1601.496)"/><path class="b" d="M13.111,6.656a1.809,1.809,0,0,1,0,.333,1.46,1.46,0,0,1-1.41.949.9.9,0,0,1-.954-.838,1.134,1.134,0,0,1,.005-.162c0-1.1,1.256-1.308,2.41-1.282Zm1-1.59c0-1.128-.41-2.308-2.179-2.308a3.484,3.484,0,0,0-1.872.487l.231.692A2.558,2.558,0,0,1,11.778,3.5a1.206,1.206,0,0,1,1.31,1.09,1.1,1.1,0,0,1,0,.244c-2.205,0-3.436.744-3.436,2.128a1.615,1.615,0,0,0,1.61,1.62c.044,0,.09,0,.133-.005a2.047,2.047,0,0,0,1.743-.846v.718h.923a10.924,10.924,0,0,1,0-1.359Z" transform="translate(6194.092 1601.499)"/></g></svg>